<svg xmlns:xlink="http://www.w3.org/1999/xlink" xmlns="http://www.w3.org/2000/svg" width="17" height="20" viewBox="0 0 17 20" fill="none" class="h-[18px] w-auto"><path d="M13.6264 10.8929C13.6048 8.48359 15.5992 7.31145 15.6904 7.25688C14.5609 5.61004 12.8101 5.38504 12.1949 5.36709C10.7245 5.21235 9.29817 6.24695 8.54914 6.24695C7.78515 6.24695 6.63169 5.38204 5.38853 5.40746C3.7888 5.43213 2.29222 6.35833 1.47142 7.7966C-0.22251 10.7292 1.04083 15.0388 2.66375 17.4092C3.47558 18.5702 4.42421 19.8664 5.66587 19.8208C6.88063 19.7707 7.33438 19.0464 8.80031 19.0464C10.2528 19.0464 10.6789 19.8208 11.9452 19.7916C13.2489 19.7707 14.0697 18.6255 14.8532 17.4541C15.7913 16.1235 16.1681 14.813 16.183 14.7457C16.1524 14.7353 13.6511 13.7807 13.6264 10.8929Z" style="" fill="#0500FF"></path><path d="M11.2914 3.51592C11.9447 2.69886 12.3918 1.58727 12.2677 0.459229C11.322 0.501091 10.1394 1.11333 9.4584 1.91245C8.85588 2.61663 8.31765 3.77084 8.45669 4.85627C9.51895 4.93551 10.6096 4.32028 11.2914 3.51592Z" style="" fill="#0500FF"></path></svg>