<svg xmlns:xlink="http://www.w3.org/1999/xlink" xmlns="http://www.w3.org/2000/svg" width="73" height="95" viewBox="0 0 73 95" fill="none" class="h-[48px] w-[37px] tablet:h-[94px] tablet:w-[72px]"><path d="M9.07395 63.5595C8.88595 62.2203 8.79238 60.8692 8.79395 59.5165V55.4735H0.793945V47.3875H8.79395V43.3445C8.79395 41.9699 8.88995 40.6235 9.07395 39.3015H0.793945V31.2155H11.4899C13.9418 26.0061 17.904 21.6742 22.8499 18.7953L18.6499 14.5502L24.3139 8.8374L31.0459 15.6458C34.8396 14.8445 38.7563 14.8445 42.5499 15.6458L49.2819 8.8374L54.9419 14.5583L50.7419 18.8034C55.6852 21.6808 59.6458 26.0097 62.0979 31.2155H72.7939V39.3015H64.5139C64.6979 40.6235 64.7939 41.9699 64.7939 43.3445V47.3875H72.7939V55.4735H64.7939V59.5165C64.7939 60.8912 64.6979 62.2375 64.5139 63.5595H72.7939V71.6456H62.0979C59.8284 76.4876 56.2457 80.579 51.7663 83.444C47.2869 86.309 42.0949 87.8299 36.7939 87.8299C31.493 87.8299 26.301 86.309 21.8216 83.444C17.3422 80.579 13.7595 76.4876 11.4899 71.6456H0.793945V63.5595H9.07395ZM24.7939 39.3015V47.3875H48.7939V39.3015H24.7939ZM24.7939 55.4735V63.5595H48.7939V55.4735H24.7939Z" fill="url(&quot;#paint0_linear_2745_67774&quot;)"></path><defs><linearGradient id="paint0_linear_2745_67774" x1="36.7939" y1="8.8374" x2="36.7939" y2="87.8299" gradientUnits="userSpaceOnUse"><stop offset="0.0457846" class="default-transition text-trustLightBlue [transition-property:stop-color,color] dark:text-trustYellow" style="stop-color: currentcolor;"></stop><stop offset="1" class="default-transition text-trustBlue [transition-property:stop-color,color] dark:text-trustGreen" style="stop-color: currentcolor;"></stop></linearGradient><linearGradient id="paint0_linear_2745_67774" x1="36.7939" y1="8.8374" x2="36.7939" y2="87.8299" gradientUnits="userSpaceOnUse"><stop offset="0.0457846" class="default-transition text-trustLightBlue [transition-property:stop-color,color] dark:text-trustYellow" style="stop-color: currentcolor;"></stop><stop offset="1" class="default-transition text-trustBlue [transition-property:stop-color,color] dark:text-trustGreen" style="stop-color: currentcolor;"></stop></linearGradient></defs></svg>