<svg xmlns:xlink="http://www.w3.org/1999/xlink" xmlns="http://www.w3.org/2000/svg" width="284" height="249" viewBox="0 0 284 249" fill="none" class="mx-auto my-10 mt-auto h-[150px] w-auto" data-v-e99fc08a=""><path d="M122.666 124.348L99.3893 86.2246C88.9987 69.2057 63.6531 56.4902 44.042 58.4536C36.5168 59.207 31.1626 61.9962 28.9611 66.2995C26.6793 70.7679 27.7437 77.2091 31.8709 83.9649L55.1471 122.088L36.7097 132.954L13.4335 94.8301C5.44611 81.7492 4.09985 67.9009 9.74214 56.8351C15.2693 45.9993 26.9764 38.9281 41.8619 37.4379C69.7686 34.6439 103.14 51.3011 117.827 75.3594L141.103 113.483L122.666 124.348Z" fill="#1B1B1C" data-v-e99fc08a=""></path><path d="M21.2813 94.4345C14.3626 83.6158 14.6298 70.5141 10.3124 66.481C9.08964 75.3292 11.3878 85.088 17.1073 94.4633L24.6178 106.766C25.6066 105.042 25.8027 101.506 21.2813 94.4345Z" fill="url(&quot;#paint0_linear_2623_70091&quot;)" data-v-e99fc08a=""></path><path d="M121.5 106.756C114.85 96.3196 106.737 84.6373 108.92 83.4356C111.102 82.2339 118.987 94.5263 127.718 106.133L121.5 106.756Z" fill="url(&quot;#paint1_linear_2623_70091&quot;)" data-v-e99fc08a=""></path><path d="M100.924 84.7338L123.608 120.636L126.111 118.767L99.4664 76.6455C93.4646 67.162 86.9967 53.5875 61.7502 47.3211C31.3605 39.7807 16.3435 58.2918 25.984 73.4399C24.416 65.8953 30.0061 57.7433 42.3945 56.503C62.9755 54.4425 88.4421 64.9747 100.923 84.727L100.924 84.7338Z" fill="url(&quot;#paint2_linear_2623_70091&quot;)" data-v-e99fc08a=""></path><path d="M79.0704 128.326L67.8063 112.132L41.7499 114.741C30.8816 115.829 17.8159 124.476 12.7121 133.966C10.253 138.534 10.0797 142.491 11.7623 145.245L63.0197 229.193L127.267 201.998L79.0773 128.325L79.0704 128.326Z" fill="#1B1B1C" stroke="#48FF91" stroke-width="0.691661px" stroke-linecap="round" stroke-linejoin="round" data-v-e99fc08a=""></path><path d="M217.548 192.96L198.991 227.454C197.674 229.901 194.909 231.591 190.968 231.986L209.526 197.491C213.467 197.097 216.231 195.4 217.548 192.96Z" fill="url(&quot;#paint3_linear_2623_70091&quot;)" data-v-e99fc08a=""></path><path d="M209.525 197.489L190.967 231.983L117.944 239.294L136.508 204.799L209.525 197.489Z" fill="url(&quot;#paint4_linear_2623_70091&quot;)" data-v-e99fc08a=""></path><path d="M136.509 204.799L117.944 239.294L100.497 230.567L119.055 196.073L136.509 204.799Z" fill="#F4F4F7" data-v-e99fc08a=""></path><path d="M119.055 196.073L100.497 230.567L74.4406 233.175C63.5723 234.264 58.8634 227.395 63.9673 217.906C69.0719 208.423 82.1368 199.769 93.0051 198.681L119.062 196.072L119.055 196.073Z" fill="url(&quot;#paint5_linear_2623_70091&quot;)" data-v-e99fc08a=""></path><path d="M209.525 197.489L136.501 204.8L119.055 196.073L92.9985 198.682C82.1302 199.77 69.0645 208.418 63.9607 217.907C58.8561 227.39 63.5725 234.264 74.4339 233.177L100.49 230.568L117.937 239.295L190.961 231.984C194.902 231.589 197.666 229.893 198.984 227.453L217.541 192.959C216.225 195.405 213.46 197.095 209.519 197.49L209.525 197.489Z" stroke="#0500FF" stroke-width="0.691661px" stroke-linecap="round" stroke-linejoin="round" data-v-e99fc08a="" fill="none"></path><path d="M94.4263 109.467L75.8686 143.961L23.1849 149.235C12.3166 150.324 7.60778 143.455 12.7117 133.966C17.8155 124.477 30.8812 115.829 41.7495 114.741L94.4332 109.466L94.4263 109.467Z" fill="#1B1B1C" stroke="#48FF91" stroke-width="0.691661px" stroke-linecap="round" stroke-linejoin="round" data-v-e99fc08a=""></path><mask id="mask0_2623_70091" style="mask-type:luminance;" maskUnits="userSpaceOnUse" x="68" y="160" width="21" height="13" data-v-e99fc08a="" fill="none"><path d="M88.5434 160.493L70.6759 171.493C69.9963 171.909 69.167 172.156 68.1867 172.22L86.0542 161.221C87.0345 161.156 87.8638 160.91 88.5434 160.493Z" fill="#FFFFFF" data-v-e99fc08a=""></path></mask><g mask="url(#mask0_2623_70091)" data-v-e99fc08a="" fill="none"><path d="M88.5433 160.494L70.6758 171.493C70.3425 171.697 69.9706 171.864 69.5594 171.988L87.4269 160.988C87.8381 160.865 88.2107 160.705 88.5433 160.494Z" fill="#1B1B1C" stroke="#48FF91" stroke-width="0.691661px" stroke-linecap="round" stroke-linejoin="round" data-v-e99fc08a=""></path><path d="M87.4267 160.988L69.5592 171.987C69.1411 172.111 68.6838 172.191 68.1871 172.227L86.0546 161.228C86.5513 161.192 87.0093 161.119 87.4267 160.988Z" fill="#1B1B1C" stroke="#48FF91" stroke-width="0.691661px" stroke-linecap="round" stroke-linejoin="round" data-v-e99fc08a=""></path></g><path d="M88.5436 160.494L70.6761 171.493C69.9965 171.91 69.1672 172.156 68.187 172.22L86.0545 161.221C87.0347 161.157 87.864 160.91 88.5436 160.494Z" stroke="#48FF91" stroke-width="0.691661px" stroke-linecap="round" stroke-linejoin="round" data-v-e99fc08a="" fill="none"></path><path d="M70.28 136.792L52.4056 147.792L52.2933 140.545L70.1608 129.546L70.28 136.792Z" fill="#1B1B1C" stroke="#48FF91" stroke-width="0.691661px" stroke-linecap="round" stroke-linejoin="round" data-v-e99fc08a=""></path><mask id="mask1_2623_70091" style="mask-type:luminance;" maskUnits="userSpaceOnUse" x="59" y="147" width="22" height="19" data-v-e99fc08a="" fill="none"><path d="M80.0597 154.419L62.1922 165.418C62.7344 165.084 63.0241 164.392 63.0096 163.315C62.9709 161.066 61.5556 159.214 59.2757 158.206L77.1431 147.207C79.4306 148.221 80.8453 150.066 80.8771 152.316C80.8909 153.386 80.6088 154.084 80.0597 154.419Z" fill="#FFFFFF" data-v-e99fc08a=""></path></mask><g mask="url(#mask1_2623_70091)" data-v-e99fc08a="" fill="none"><path d="M80.8778 152.317C80.876 152.098 80.8612 151.888 80.8325 151.679C80.7802 151.309 80.6949 150.956 80.569 150.613C80.4432 150.271 80.2843 149.945 80.0849 149.631L62.2174 160.63C62.4161 160.938 62.5757 161.27 62.7016 161.613C62.8274 161.955 62.9127 162.308 62.9651 162.679C62.9868 162.888 63.0085 163.098 63.0103 163.316C63.0241 164.387 62.742 165.084 62.1929 165.419L80.0604 154.42C80.6026 154.085 80.8923 153.394 80.8778 152.317Z" fill="#1B1B1C" stroke="#48FF91" stroke-width="0.691661px" stroke-linecap="round" stroke-linejoin="round" data-v-e99fc08a=""></path><path d="M77.2828 147.276L59.4153 158.275C59.3644 158.253 59.3203 158.23 59.2693 158.208L77.1368 147.209C77.1878 147.231 77.2387 147.253 77.2828 147.276Z" fill="#1B1B1C" stroke="#48FF91" stroke-width="0.691661px" stroke-linecap="round" stroke-linejoin="round" data-v-e99fc08a=""></path></g><path d="M80.0596 154.418L62.1921 165.418C62.7343 165.083 63.024 164.392 63.0095 163.315C62.9708 161.065 61.5554 159.213 59.2755 158.206L77.143 147.207C79.4305 148.22 80.8451 150.065 80.877 152.315C80.8907 153.386 80.6086 154.083 80.0596 154.418Z" stroke="#48FF91" stroke-width="0.691661px" stroke-linecap="round" stroke-linejoin="round" data-v-e99fc08a="" fill="none"></path><path d="M60.7379 132.573L42.8704 143.572L42.7581 136.325L60.6256 125.326L60.7379 132.573Z" fill="#1B1B1C" stroke="#48FF91" stroke-width="0.691661px" stroke-linecap="round" stroke-linejoin="round" data-v-e99fc08a=""></path><path d="M77.2823 147.274L66.2387 142.385L48.3712 153.385L59.4217 158.273C60.6343 158.841 61.5936 159.646 62.2098 160.629L80.0773 149.63C79.4542 148.648 78.5018 147.842 77.2891 147.274L77.2823 147.274Z" fill="#1B1B1C" stroke="#48FF91" stroke-width="0.691661px" stroke-linecap="round" stroke-linejoin="round" data-v-e99fc08a=""></path><mask id="mask2_2623_70091" style="mask-type:luminance;" maskUnits="userSpaceOnUse" x="60" y="161" width="22" height="19" data-v-e99fc08a="" fill="none"><path d="M81.0055 168.896L63.138 179.895C63.6933 179.553 63.9878 178.841 63.9698 177.73C63.9343 175.378 62.47 173.456 60.0517 172.387L77.9191 161.387C80.3375 162.456 81.8018 164.378 81.8373 166.73C81.8552 167.842 81.5608 168.554 81.0055 168.896Z" fill="#FFFFFF" data-v-e99fc08a=""></path></mask><g mask="url(#mask2_2623_70091)" data-v-e99fc08a="" fill="none"><path d="M81.8372 166.73C81.834 166.498 81.8177 166.274 81.7884 166.059C81.7347 165.675 81.6404 165.302 81.5131 164.946C81.3858 164.59 81.2118 164.253 81.0117 163.931L63.1442 174.931C63.3443 175.252 63.5184 175.589 63.6456 175.945C63.7798 176.301 63.8672 176.674 63.9209 177.058C63.9509 177.28 63.9672 177.504 63.9697 177.729C63.9877 178.84 63.6932 179.552 63.1379 179.895L81.0054 168.896C81.5607 168.553 81.8551 167.841 81.8372 166.73Z" fill="#1B1B1C" stroke="#48FF91" stroke-width="0.691661px" stroke-linecap="round" stroke-linejoin="round" data-v-e99fc08a=""></path><path d="M78.0796 161.46L60.2121 172.459C60.1612 172.437 60.1095 172.408 60.0517 172.386L77.9192 161.387C77.9701 161.409 78.0287 161.437 78.0796 161.46Z" fill="#1B1B1C" stroke="#48FF91" stroke-width="0.691661px" stroke-linecap="round" stroke-linejoin="round" data-v-e99fc08a=""></path></g><path d="M81.0054 168.895L63.1379 179.895C63.6932 179.552 63.9876 178.84 63.9697 177.729C63.9342 175.377 62.4698 173.455 60.0515 172.386L77.919 161.387C80.3373 162.455 81.8017 164.378 81.8371 166.73C81.8551 167.841 81.5606 168.553 81.0054 168.895Z" stroke="#48FF91" stroke-width="0.691661px" stroke-linecap="round" stroke-linejoin="round" data-v-e99fc08a="" fill="none"></path><mask id="mask3_2623_70091" style="mask-type:luminance;" maskUnits="userSpaceOnUse" x="62" y="176" width="28" height="14" data-v-e99fc08a="" fill="none"><path d="M89.529 177.564L71.6615 188.563C69.6494 189.803 66.3879 189.583 62.0973 187.684L79.9648 176.685C84.2554 178.584 87.51 178.804 89.529 177.564Z" fill="#FFFFFF" data-v-e99fc08a=""></path></mask><g mask="url(#mask3_2623_70091)" data-v-e99fc08a="" fill="none"><path d="M89.5292 177.564L71.6617 188.564C71.3085 188.777 70.9235 188.952 70.4986 189.076L88.3661 178.077C88.791 177.952 89.1759 177.777 89.5292 177.564Z" fill="#1B1B1C" stroke="#48FF91" stroke-width="0.691661px" stroke-linecap="round" stroke-linejoin="round" data-v-e99fc08a=""></path></g><path d="M89.529 177.564L71.6615 188.563C69.6494 189.803 66.3879 189.583 62.0973 187.684L79.9648 176.685C84.2554 178.584 87.51 178.804 89.529 177.564Z" stroke="#48FF91" stroke-width="0.691661px" stroke-linecap="round" stroke-linejoin="round" data-v-e99fc08a="" fill="none"></path><path d="M77.9188 161.384L66.46 156.312L48.5925 167.311L60.0513 172.384L61.0089 171.967L60.2117 172.456C61.4967 173.051 62.4953 173.901 63.1432 174.921L81.0107 163.922C80.3627 162.901 79.3642 162.052 78.0792 161.457" fill="#1B1B1C" data-v-e99fc08a=""></path><path d="M77.9188 161.384L66.46 156.312L48.5925 167.311L60.0513 172.384L61.0089 171.967L60.2117 172.456C61.4967 173.051 62.4953 173.901 63.1432 174.921L81.0107 163.922C80.3627 162.901 79.3642 162.052 78.0792 161.457" stroke="#48FF91" stroke-width="0.691661px" stroke-linecap="round" stroke-linejoin="round" data-v-e99fc08a="" fill="none"></path><path d="M85.3981 178.278C83.8381 178.114 82.0187 177.593 79.9639 176.679L76.227 175.025L58.3595 186.024L62.0965 187.678C64.1505 188.585 65.9706 189.113 67.5306 189.278C68.6619 189.397 69.6552 189.324 70.4983 189.076L88.3657 178.077C87.5158 178.326 86.5225 178.398 85.3981 178.278Z" fill="#48FF91" stroke="#48FF91" stroke-width="0.691661px" stroke-linecap="round" stroke-linejoin="round" data-v-e99fc08a=""></path><path d="M56.1786 137.932L38.3111 148.931L32.1779 146.22L50.0522 135.22L56.1786 137.932Z" fill="#1B1B1C" stroke="#48FF91" stroke-width="0.691661px" stroke-linecap="round" stroke-linejoin="round" data-v-e99fc08a=""></path><path d="M50.0521 135.22L32.1777 146.22L32.0602 138.789L49.9346 127.789L50.0521 135.22Z" fill="#1B1B1C" stroke="#48FF91" stroke-width="0.691661px" stroke-linecap="round" stroke-linejoin="round" data-v-e99fc08a=""></path><path d="M70.8449 172.651L52.9774 183.65L48.8184 181.814L66.6859 170.814L70.8449 172.651Z" fill="#1B1B1C" stroke="#48FF91" stroke-width="0.691661px" stroke-linecap="round" stroke-linejoin="round" data-v-e99fc08a=""></path><path d="M76.335 182.163L58.4675 193.162L53.0841 190.779L70.9585 179.779L76.335 182.163Z" fill="#48FF91" stroke="#48FF91" stroke-width="0.691661px" stroke-linecap="round" stroke-linejoin="round" data-v-e99fc08a=""></path><path d="M70.9586 179.779L53.0842 190.779L52.9769 183.648L70.8444 172.649L70.9586 179.779Z" fill="#1B1B1C" stroke="#48FF91" stroke-width="0.691661px" stroke-linecap="round" stroke-linejoin="round" data-v-e99fc08a=""></path><path d="M56.5083 158.933L38.6408 169.933L38.3107 148.93L56.1782 137.93L56.5083 158.933Z" fill="#1B1B1C" stroke="#48FF91" stroke-width="0.691661px" stroke-linecap="round" stroke-linejoin="round" data-v-e99fc08a=""></path><path d="M66.7998 177.944L48.9323 188.943L43.5489 186.56L61.4164 175.561L66.7998 177.944Z" fill="#48FF91" stroke="#48FF91" stroke-width="0.691661px" stroke-linecap="round" stroke-linejoin="round" data-v-e99fc08a=""></path><path d="M61.4162 175.559L43.5487 186.559L43.4345 179.428L61.3088 168.428L61.4162 175.559Z" fill="#1B1B1C" stroke="#48FF91" stroke-width="0.691661px" stroke-linecap="round" stroke-linejoin="round" data-v-e99fc08a=""></path><path d="M50.499 163.646L32.6315 174.645L32.5078 167.223L50.3822 156.223L50.499 163.646Z" fill="#1B1B1C" stroke="#48FF91" stroke-width="0.691661px" stroke-linecap="round" stroke-linejoin="round" data-v-e99fc08a=""></path><path d="M56.6252 166.358L50.4988 163.646L32.6313 174.646L38.7577 177.357L43.4346 179.429L61.3089 168.429L56.6252 166.358Z" fill="#48FF91" stroke="#48FF91" stroke-width="0.691661px" stroke-linecap="round" stroke-linejoin="round" data-v-e99fc08a=""></path><path d="M86.0551 161.226C89.7596 164.242 91.8094 167.99 91.8738 172.094C91.9728 178.14 87.5994 180.066 79.9651 176.686L76.2281 175.032L76.3423 182.163L70.9589 179.779L70.8448 172.649L66.6926 170.812L66.8068 177.942L61.4234 175.559L61.3092 168.428L56.6323 166.357L50.506 163.645L50.3892 156.221L56.5155 158.933L56.1854 137.93L50.0591 135.218L49.9415 127.788L56.0679 130.5L60.7448 132.571L60.6324 125.325L66.0158 127.708L66.1281 134.955L70.2803 136.792L70.168 129.546L75.5513 131.929L75.6637 139.175L78.6508 140.501C86.2411 143.858 90.6353 149.57 90.7327 155.466C90.7863 158.998 89.1548 161.025 86.0558 161.233L86.0551 161.226ZM78.0362 168.611C80.4545 169.68 81.879 169.141 81.8441 166.728C81.8086 164.376 80.3443 162.453 77.926 161.385L66.4672 156.312L66.5843 163.537L78.0431 168.61M66.2525 142.384L66.3637 149.351L77.2612 154.173C79.5487 155.186 80.9222 154.626 80.8917 152.321C80.8529 150.072 79.4376 148.22 77.1577 147.212L66.2601 142.39" fill="#1B1B1C" data-v-e99fc08a=""></path><path d="M78.0362 168.611C80.4545 169.68 81.879 169.141 81.8441 166.728C81.8086 164.376 80.3443 162.453 77.926 161.385L66.4672 156.312L66.5843 163.537L78.0431 168.61M66.2525 142.384L66.3637 149.351L77.2612 154.173C79.5487 155.186 80.9222 154.626 80.8917 152.321C80.8529 150.072 79.4376 148.22 77.1577 147.212L66.2601 142.39M86.0551 161.226C89.7595 164.242 91.8094 167.99 91.8738 172.094C91.9728 178.14 87.5994 180.066 79.9651 176.686L76.2281 175.032L76.3423 182.163L70.9589 179.779L70.8448 172.649L66.6926 170.812L66.8068 177.942L61.4234 175.559L61.3092 168.428L56.6323 166.357L50.506 163.645L50.3892 156.221L56.5155 158.933L56.1854 137.93L50.0591 135.218L49.9415 127.788L56.0679 130.5L60.7448 132.571L60.6324 125.325L66.0158 127.708L66.1281 134.955L70.2803 136.792L70.168 129.546L75.5513 131.929L75.6637 139.175L78.6508 140.501C86.2411 143.858 90.6353 149.57 90.7327 155.466C90.7863 158.998 89.1548 161.025 86.0558 161.233L86.0551 161.226Z" stroke="#48FF91" stroke-width="0.691661px" stroke-linecap="round" stroke-linejoin="round" data-v-e99fc08a="" fill="none"></path><path d="M90.5252 224.097C99.5835 218.782 104.634 210.703 101.807 206.052C98.9794 201.402 89.3441 201.94 80.2858 207.255C71.2276 212.57 66.1766 220.649 69.0042 225.3C71.8317 229.95 81.467 229.412 90.5252 224.097Z" fill="#F4F4F7" data-v-e99fc08a=""></path><path d="M97.1776 213.843C95.8854 216.595 93.0166 219.558 89.1379 221.831C82.5275 225.709 75.4997 226.098 73.4381 222.706C71.3765 219.315 75.0604 213.422 81.6708 209.545C87.4029 206.178 93.4566 205.442 96.2993 207.52" stroke="#1B1B1C" stroke-width="0.691661px" stroke-linecap="round" stroke-linejoin="round" data-v-e99fc08a="" fill="none"></path><path d="M101.761 212.667L84.936 214.352L83.2756 217.44L100.018 215.764C100.618 214.844 101.361 213.697 101.761 212.667Z" fill="#1B1B1C" data-v-e99fc08a=""></path><path d="M209.525 197.49C217.663 196.675 220.784 190.313 216.488 183.274L174.759 114.928C170.464 107.896 160.384 102.856 152.247 103.67L54.2122 113.485L100.758 189.733L88.277 190.955C77.4087 192.043 64.3431 200.691 59.2392 210.18C56.7801 214.748 56.6068 218.705 58.2895 221.459L63.011 229.186C61.3276 226.426 61.5009 222.469 63.96 217.901C69.0646 208.418 82.1295 199.764 92.9978 198.676L119.054 196.067L136.501 204.794L209.525 197.483L209.525 197.49Z" fill="url(&quot;#paint6_linear_2623_70091&quot;)" data-v-e99fc08a=""></path><path d="M151.237 194.354C148.637 194.615 145.414 193.026 144.067 190.825L133.701 173.852C132.354 171.652 133.382 169.637 135.983 169.377L189.051 164.063C191.652 163.803 194.874 165.392 196.222 167.592L206.587 184.566C207.934 186.766 206.906 188.781 204.306 189.041L151.237 194.354Z" fill="#1B1B1C" data-v-e99fc08a=""></path><path d="M95.2521 109.384L74.8026 147.215L89.6401 171.525L124.83 106.423L95.2521 109.384Z" fill="#F4F4F7" data-v-e99fc08a=""></path><path d="M85.6075 110.35L69.9631 139.295L72.953 144.199L91.5782 109.752L85.6075 110.35Z" fill="#F4F4F7" data-v-e99fc08a=""></path><path d="M209.525 197.49C217.663 196.675 220.784 190.313 216.488 183.274L174.759 114.928C170.464 107.896 160.384 102.856 152.247 103.67L54.2122 113.485L100.758 189.733L88.277 190.955C77.4087 192.043 64.3431 200.691 59.2392 210.18C56.7801 214.748 56.6068 218.705 58.2895 221.459L63.011 229.186C61.3276 226.426 61.5009 222.469 63.96 217.901C69.0646 208.418 82.1295 199.764 92.9978 198.676L119.054 196.067L136.501 204.794L209.525 197.483L209.525 197.49Z" stroke="#0500FF" stroke-width="0.691661px" stroke-linecap="round" stroke-linejoin="round" data-v-e99fc08a="" fill="none"></path><path d="M160.865 181.511L157.374 180.488L159.291 178.931L157.85 177.907L155.934 179.465L154.367 176.891L152.826 177.045L154.401 179.625L150.917 178.602L150.816 179.779L154.306 180.795L152.391 182.359L153.831 183.383L155.747 181.819L157.314 184.399L158.855 184.245L157.281 181.665L160.765 182.689L160.865 181.511Z" fill="#48FF91" data-v-e99fc08a=""></path><path d="M175.172 180.078L171.688 179.055L173.598 177.498L172.157 176.475L170.247 178.031L168.674 175.458L167.14 175.611L168.707 178.192L165.223 177.169L165.123 178.346L168.613 179.362L166.697 180.927L168.138 181.95L170.054 180.386L171.628 182.966L173.162 182.812L171.588 180.232L175.079 181.255L175.172 180.078Z" fill="#48FF91" data-v-e99fc08a=""></path><path d="M189.487 178.645L185.996 177.622L187.906 176.065L186.472 175.041L184.555 176.599L182.982 174.025L181.448 174.179L183.022 176.759L179.531 175.736L179.438 176.913L182.921 177.93L181.012 179.493L182.453 180.516L184.362 178.953L185.936 181.533L187.47 181.38L185.903 178.799L189.387 179.822L189.487 178.645Z" fill="#48FF91" data-v-e99fc08a=""></path><path d="M256.144 33.5215C259.913 34.3085 262.805 38.0708 262.602 41.9248L260.238 86.2802C260.035 90.1342 256.81 92.6236 253.041 91.8367L109.887 62.0237C106.118 61.2367 103.225 57.4744 103.429 53.6204L105.793 9.26497C105.996 5.41092 109.221 2.92152 112.99 3.70851L256.137 33.524L256.144 33.5215Z" fill="#48FF91" data-v-e99fc08a=""></path><path d="M186.289 77.938L253.026 91.8412C256.796 92.6282 260.02 90.1388 260.223 86.2848L262.588 41.9294C262.791 38.0753 259.906 34.3105 256.13 33.5261L229.47 27.9728L186.282 77.9405L186.289 77.938Z" fill="#F4F4F7" data-v-e99fc08a=""></path><path d="M135.668 30.4119L135.434 34.706L139.185 33.3071L140.781 36.8026L137.028 38.1945L140.557 41.1012L138.628 43.8573L135.102 40.9576L134.875 45.2491L131.35 44.5098L131.577 40.2183L127.827 41.6171L126.223 38.1241L129.983 36.7298L126.454 33.8231L128.383 31.0669L131.912 33.9736L132.136 29.6751L135.668 30.4119Z" fill="#1B1B1C" data-v-e99fc08a=""></path><path d="M159.76 35.4322L159.533 39.7237L163.276 38.3275L164.88 41.8204L161.13 43.2192L164.649 46.1215L162.72 48.8776L159.201 45.9754L158.974 50.2669L155.442 49.5301L155.669 45.2386L151.918 46.6374L150.322 43.1419L154.082 41.7475L150.546 38.8434L152.482 36.0847L156.004 38.9939L156.237 34.6999L159.76 35.4322Z" fill="#1B1B1C" data-v-e99fc08a=""></path><path d="M214.48 66.5238L214.271 70.3638L195.614 66.4804L195.816 62.6429L214.48 66.5238Z" fill="#1B1B1C" data-v-e99fc08a=""></path><path d="M183.859 40.4485L183.625 44.7425L187.376 43.3437L188.972 46.8392L185.222 48.238L188.748 51.1377L186.819 53.8939L183.293 50.9942L183.066 55.2857L179.544 54.5534L179.768 50.2549L176.017 51.6537L174.414 48.1607L178.174 46.7663L174.645 43.8597L176.574 41.1035L180.103 44.0102L180.329 39.7187L183.859 40.4485Z" fill="#1B1B1C" data-v-e99fc08a=""></path><path d="M260.855 30.3966L117.711 0.588043C115.977 0.231731 114.359 0.556957 113.102 1.39647L108.389 4.51451C109.648 3.68201 111.264 3.34977 112.997 3.70608L256.144 33.5216C259.913 34.3086 262.805 38.0709 262.602 41.9249L260.238 86.2803C260.131 88.3681 259.131 90.0529 257.645 91.0379L262.359 87.9199C263.845 86.9348 264.838 85.2526 264.952 83.1623L267.316 38.8069C267.519 34.9528 264.634 31.188 260.858 30.4036L260.855 30.3966Z" fill="#48FF91" data-v-e99fc08a=""></path><path d="M264.219 32.0521L259.505 35.1701C260.428 35.9358 261.198 36.8993 261.736 37.9777L266.449 34.8597C265.911 33.7812 265.141 32.8178 264.219 32.0521Z" fill="#1B1B1C" data-v-e99fc08a=""></path><path d="M267.306 38.8024C267.333 38.2209 267.287 37.6413 267.192 37.0796L262.479 40.1976C262.584 40.7638 262.629 41.3434 262.592 41.9205L260.228 86.2759C260.121 88.3636 259.121 90.0484 257.635 91.0335L262.349 87.9154C263.835 86.9303 264.828 85.2481 264.941 83.1578L267.306 38.8024Z" fill="#1B1B1C" data-v-e99fc08a=""></path><path d="M260.855 30.3966L117.711 0.588043C115.977 0.231731 114.359 0.556957 113.102 1.39647L108.389 4.51451C109.648 3.68201 111.264 3.34977 112.997 3.70608L256.144 33.5216C259.913 34.3086 262.805 38.0709 262.602 41.9249L260.238 86.2803C260.131 88.3681 259.131 90.0529 257.645 91.0379L262.359 87.9199C263.845 86.9348 264.838 85.2526 264.952 83.1623L267.316 38.8069C267.519 34.9528 264.634 31.188 260.858 30.4036L260.855 30.3966Z" stroke="#0500FF" stroke-width="0.283934px" stroke-miterlimit="10" data-v-e99fc08a="" fill="none"></path><path d="M256.144 33.5215C259.913 34.3085 262.805 38.0708 262.602 41.9248L260.238 86.2802C260.035 90.1342 256.81 92.6236 253.041 91.8367L109.887 62.0237C106.118 61.2367 103.225 57.4744 103.429 53.6204L105.793 9.26497C105.996 5.41092 109.221 2.92152 112.99 3.70851L256.137 33.524L256.144 33.5215Z" stroke="#0500FF" stroke-width="0.283934px" stroke-miterlimit="10" data-v-e99fc08a="" fill="none"></path><path d="M103.043 136.338L246.19 166.154C247.923 166.51 249.541 166.185 250.798 165.346L255.512 162.228C254.252 163.06 252.637 163.392 250.903 163.036L107.753 133.213C103.984 132.426 101.092 128.664 101.295 124.81L103.66 80.4547C103.766 78.367 104.766 76.6822 106.253 75.6971L101.539 78.8152C100.053 79.8002 99.0599 81.4825 98.9461 83.5728L96.5817 127.928C96.3786 131.782 99.2636 135.547 103.04 136.331L103.043 136.338Z" fill="#48FF91" data-v-e99fc08a=""></path><path d="M99.6789 134.683L104.392 131.565C103.469 130.799 102.7 129.836 102.162 128.757L97.4483 131.875C97.986 132.954 98.7559 133.917 99.6789 134.683Z" fill="#1B1B1C" data-v-e99fc08a=""></path><path d="M96.5846 127.936C96.5578 128.517 96.603 129.097 96.6983 129.659L101.412 126.541C101.307 125.974 101.262 125.395 101.298 124.818L103.66 80.4554C103.767 78.3677 104.767 76.6829 106.253 75.6978L101.539 78.8158C100.053 79.8009 99.0601 81.4831 98.9463 83.5734L96.5819 127.929L96.5846 127.936Z" fill="#1B1B1C" data-v-e99fc08a=""></path><path d="M103.043 136.338L246.19 166.154C247.923 166.51 249.541 166.185 250.798 165.346L255.512 162.228C254.252 163.06 252.637 163.392 250.903 163.036L107.753 133.213C103.984 132.426 101.092 128.664 101.295 124.81L103.66 80.4547C103.766 78.367 104.766 76.6822 106.253 75.6971L101.539 78.8152C100.053 79.8002 99.0599 81.4825 98.9461 83.5728L96.5817 127.928C96.3786 131.782 99.2636 135.547 103.04 136.331L103.043 136.338Z" stroke="#0500FF" stroke-width="0.283934px" stroke-miterlimit="10" data-v-e99fc08a="" fill="none"></path><path d="M254.011 104.712L110.864 74.8962C109.13 74.5399 107.513 74.8651 106.255 75.7046L101.542 78.8226C102.802 77.9901 104.417 77.6579 106.15 78.0142L249.297 107.83C253.067 108.617 255.959 112.379 255.756 116.233L253.391 160.588C253.285 162.676 252.284 164.361 250.798 165.346L255.512 162.228C256.998 161.243 257.991 159.561 258.105 157.47L260.469 113.115C260.672 109.261 257.787 105.496 254.011 104.712Z" fill="#48FF91" data-v-e99fc08a=""></path><path d="M257.375 106.366L252.661 109.484C253.584 110.25 254.354 111.214 254.892 112.292L259.605 109.174C259.067 108.096 258.297 107.132 257.375 106.366Z" fill="#1B1B1C" data-v-e99fc08a=""></path><path d="M260.459 113.11C260.486 112.528 260.441 111.949 260.346 111.387L255.632 114.505C255.737 115.071 255.782 115.651 255.746 116.228L253.381 160.583C253.275 162.671 252.275 164.356 250.789 165.341L255.502 162.223C256.988 161.238 257.981 159.555 258.095 157.465L260.459 113.11Z" fill="#1B1B1C" data-v-e99fc08a=""></path><path d="M254.011 104.712L110.864 74.8962C109.13 74.5399 107.513 74.8651 106.255 75.7046L101.542 78.8226C102.802 77.9901 104.417 77.6579 106.15 78.0142L249.297 107.83C253.067 108.617 255.959 112.379 255.756 116.233L253.391 160.588C253.285 162.676 252.284 164.361 250.798 165.346L255.512 162.228C256.998 161.243 257.991 159.561 258.105 157.47L260.469 113.115C260.672 109.261 257.787 105.496 254.011 104.712Z" stroke="#0500FF" stroke-width="0.283934px" stroke-miterlimit="10" data-v-e99fc08a="" fill="none"></path><path d="M249.297 107.83C253.067 108.617 255.959 112.379 255.756 116.233L253.391 160.588C253.188 164.442 249.964 166.932 246.194 166.145L103.043 136.339C99.2735 135.552 96.3813 131.79 96.5845 127.935L98.956 83.5775C99.1592 79.7234 102.384 77.234 106.153 78.021L249.3 107.837L249.297 107.83Z" stroke="#0500FF" stroke-width="0.283934px" stroke-miterlimit="10" data-v-e99fc08a="" fill="none"></path><path d="M190.606 109.394C191.985 108.622 193.449 107.971 194.956 107.455C195.732 107.193 196.024 106.214 195.608 105.267C195.192 104.32 194.227 103.768 193.46 104.035C191.823 104.589 190.228 105.304 188.728 106.143C180.618 110.676 175.201 118.915 173.473 129.337C172.301 136.398 172.907 143.958 175.166 151.354L178.532 152.056C176.168 144.903 175.477 137.548 176.611 130.691C178.196 121.124 183.175 113.557 190.613 109.392L190.606 109.394Z" fill="#1B1B1C" data-v-e99fc08a=""></path><path d="M225.382 147.757L221.25 140.633C217.404 133.995 210.024 130.974 204.803 133.901C199.579 136.821 198.456 144.603 202.3 151.233L206.029 157.667C206.055 157.713 206.08 157.76 206.105 157.806L209.848 158.587C209.458 157.797 209.037 157.011 208.587 156.234L204.857 149.801C202.05 144.96 202.872 139.287 206.681 137.153C210.49 135.018 215.878 137.227 218.686 142.068L222.817 149.192C225.296 153.475 227.267 157.957 228.689 162.508L232.018 163.198C230.472 157.921 228.248 152.712 225.379 147.75L225.382 147.757Z" fill="#1B1B1C" data-v-e99fc08a=""></path><path d="M230.844 144.696L226.712 137.573C220.648 127.114 209.015 122.351 200.777 126.954C192.541 131.564 190.767 143.821 196.831 154.28L197.873 156.084L201.729 156.887L199.389 152.848C194.367 144.176 195.832 134.024 202.655 130.206C209.478 126.388 219.117 130.331 224.145 139L228.277 146.124C231.597 151.846 234.109 157.873 235.784 163.978L239.069 164.66C237.304 157.833 234.548 151.083 230.841 144.689L230.844 144.696Z" fill="#1B1B1C" data-v-e99fc08a=""></path><path d="M189.709 138.552C190.154 132.888 192.466 128.048 196.225 124.93C196.85 124.412 196.862 123.312 196.247 122.483C195.63 121.648 194.623 121.397 193.998 121.915C189.701 125.479 187.049 131.013 186.54 137.487C186.106 143.028 187.285 148.929 189.863 154.416L193.553 155.184C190.658 149.89 189.287 144.018 189.716 138.549L189.709 138.552Z" fill="#1B1B1C" data-v-e99fc08a=""></path><path d="M241.807 156.872C240.992 157.029 240.595 157.942 240.92 158.906C241.64 161.063 242.25 163.251 242.788 165.442L246.076 166.131C245.469 163.536 244.731 160.917 243.875 158.348C243.547 157.377 242.625 156.722 241.807 156.872Z" fill="#1B1B1C" data-v-e99fc08a=""></path><path d="M232.178 134.519C227.93 127.191 221.389 121.55 214.233 119.045C213.359 118.738 212.578 119.248 212.494 120.176C212.41 121.104 213.051 122.113 213.925 122.42C220.181 124.612 225.901 129.546 229.613 135.954L233.745 143.077C235.314 145.78 236.744 148.589 238.005 151.418C238.428 152.363 239.39 152.908 240.164 152.639C240.228 152.616 240.292 152.593 240.351 152.556C240.981 152.203 241.188 151.303 240.803 150.44C239.476 147.451 237.964 144.49 236.317 141.64L232.185 134.516L232.178 134.519Z" fill="#1B1B1C" data-v-e99fc08a=""></path><path d="M206.949 117.634C204.459 117.549 202.056 117.893 199.826 118.66C199.05 118.922 198.76 119.908 199.174 120.848C199.59 121.795 200.555 122.347 201.329 122.078C203.28 121.411 205.377 121.113 207.554 121.183C207.793 121.193 208.014 121.137 208.194 121.033C208.67 120.767 208.931 120.165 208.815 119.46C208.653 118.478 207.815 117.658 206.956 117.632L206.949 117.634Z" fill="#1B1B1C" data-v-e99fc08a=""></path><path d="M237.641 131.458C227.144 113.348 206.998 105.104 192.734 113.081C192.251 113.349 191.784 113.635 191.321 113.936C190.644 114.377 190.549 115.452 191.108 116.324C191.666 117.197 192.671 117.552 193.346 117.104C193.756 116.837 194.184 116.573 194.619 116.33C207.471 109.145 225.622 116.57 235.076 132.893L239.208 140.016C239.728 140.918 240.728 141.323 241.43 140.928C242.14 140.531 242.286 139.486 241.765 138.584L237.634 131.46L237.641 131.458Z" fill="#1B1B1C" data-v-e99fc08a=""></path><path d="M186.436 118.228C184.247 120.76 182.558 123.771 181.398 127.182C181.119 128.021 181.556 129.111 182.393 129.622C182.906 129.938 183.448 129.959 183.847 129.728C184.103 129.589 184.298 129.353 184.411 129.026C185.454 125.952 186.977 123.237 188.946 120.959C189.484 120.338 189.358 119.215 188.666 118.462C187.974 117.709 186.971 117.599 186.434 118.221L186.436 118.228Z" fill="#1B1B1C" data-v-e99fc08a=""></path><path d="M183.068 135.124C183.176 134.196 182.558 133.185 181.684 132.855C180.809 132.525 180.02 133.014 179.91 133.936C179.199 140.084 180.079 146.593 182.378 152.855L185.831 153.573C183.351 147.502 182.372 141.117 183.065 135.117L183.068 135.124Z" fill="#1B1B1C" data-v-e99fc08a=""></path><path d="M219.257 106.131C218.393 105.742 217.556 106.145 217.39 107.047C217.223 107.948 217.781 108.996 218.646 109.385C223.603 111.653 228.204 114.899 232.313 119.043C232.885 119.625 233.634 119.77 234.171 119.474C234.306 119.402 234.428 119.295 234.533 119.162C235.038 118.496 234.864 117.375 234.144 116.656C229.671 112.141 224.66 108.597 219.26 106.138L219.257 106.131Z" fill="#1B1B1C" data-v-e99fc08a=""></path><path d="M211.989 103.564C207.932 102.546 203.924 102.226 200.073 102.612C199.239 102.697 198.773 103.555 199.031 104.534C199.297 105.512 200.187 106.233 201.024 106.156C204.556 105.805 208.24 106.098 211.967 107.035C212.323 107.122 212.653 107.075 212.923 106.931C213.311 106.712 213.568 106.271 213.576 105.704C213.585 104.748 212.868 103.797 211.994 103.578L211.989 103.564Z" fill="#1B1B1C" data-v-e99fc08a=""></path><path d="M219.916 150.81L215.785 143.687C214.16 140.877 211.033 139.598 208.816 140.836C206.599 142.075 206.13 145.365 207.755 148.175L211.485 154.609C212.399 156.18 213.2 157.792 213.912 159.427L217.408 160.153C216.478 157.777 215.358 155.438 214.049 153.174L210.32 146.74C209.733 145.727 209.904 144.53 210.701 144.086C211.505 143.639 212.631 144.101 213.218 145.115L217.349 152.238C218.992 155.074 220.363 158.006 221.457 160.999L224.859 161.711C223.6 157.991 221.948 154.325 219.909 150.813L219.916 150.81Z" fill="#1B1B1C" data-v-e99fc08a=""></path><defs data-v-e99fc08a=""><linearGradient id="paint0_linear_2623_70091" x1="14.4113" y1="57.8229" x2="23.2757" y2="146.364" gradientUnits="userSpaceOnUse" data-v-e99fc08a=""><stop stop-color="#FFAEFE" data-v-e99fc08a=""></stop><stop offset="1" stop-color="#FFF465" data-v-e99fc08a=""></stop></linearGradient><linearGradient id="paint1_linear_2623_70091" x1="113.229" y1="47.9305" x2="122.093" y2="136.472" gradientUnits="userSpaceOnUse" data-v-e99fc08a=""><stop stop-color="#FFAEFE" data-v-e99fc08a=""></stop><stop offset="1" stop-color="#FFF465" data-v-e99fc08a=""></stop></linearGradient><linearGradient id="paint2_linear_2623_70091" x1="70.4931" y1="52.2083" x2="79.3575" y2="140.749" gradientUnits="userSpaceOnUse" data-v-e99fc08a=""><stop stop-color="#FFAEFE" data-v-e99fc08a=""></stop><stop offset="1" stop-color="#FFF465" data-v-e99fc08a=""></stop></linearGradient><linearGradient id="paint3_linear_2623_70091" x1="201.947" y1="211.202" x2="205.237" y2="213.084" gradientUnits="userSpaceOnUse" data-v-e99fc08a=""><stop stop-color="#FFAEFE" data-v-e99fc08a=""></stop><stop offset="1" stop-color="#FFF465" data-v-e99fc08a=""></stop></linearGradient><linearGradient id="paint4_linear_2623_70091" x1="166.325" y1="212.848" x2="145.937" y2="258.061" gradientUnits="userSpaceOnUse" data-v-e99fc08a=""><stop stop-color="#FFAEFE" data-v-e99fc08a=""></stop><stop offset="1" stop-color="#FFF465" data-v-e99fc08a=""></stop></linearGradient><linearGradient id="paint5_linear_2623_70091" x1="102.263" y1="183.948" x2="81.8675" y2="229.156" gradientUnits="userSpaceOnUse" data-v-e99fc08a=""><stop stop-color="#FFAEFE" data-v-e99fc08a=""></stop><stop offset="1" stop-color="#FFF465" data-v-e99fc08a=""></stop></linearGradient><linearGradient id="paint6_linear_2623_70091" x1="131.65" y1="175.252" x2="175.646" y2="194.598" gradientUnits="userSpaceOnUse" data-v-e99fc08a=""><stop stop-color="#FFAEFE" data-v-e99fc08a=""></stop><stop offset="1" stop-color="#FFF465" data-v-e99fc08a=""></stop></linearGradient><linearGradient id="paint0_linear_2623_70091" x1="14.4113" y1="57.8229" x2="23.2757" y2="146.364" gradientUnits="userSpaceOnUse" data-v-e99fc08a=""><stop stop-color="#FFAEFE" data-v-e99fc08a=""></stop><stop offset="1" stop-color="#FFF465" data-v-e99fc08a=""></stop></linearGradient><linearGradient id="paint1_linear_2623_70091" x1="113.229" y1="47.9305" x2="122.093" y2="136.472" gradientUnits="userSpaceOnUse" data-v-e99fc08a=""><stop stop-color="#FFAEFE" data-v-e99fc08a=""></stop><stop offset="1" stop-color="#FFF465" data-v-e99fc08a=""></stop></linearGradient><linearGradient id="paint2_linear_2623_70091" x1="70.4931" y1="52.2083" x2="79.3575" y2="140.749" gradientUnits="userSpaceOnUse" data-v-e99fc08a=""><stop stop-color="#FFAEFE" data-v-e99fc08a=""></stop><stop offset="1" stop-color="#FFF465" data-v-e99fc08a=""></stop></linearGradient><linearGradient id="paint3_linear_2623_70091" x1="201.947" y1="211.202" x2="205.237" y2="213.084" gradientUnits="userSpaceOnUse" data-v-e99fc08a=""><stop stop-color="#FFAEFE" data-v-e99fc08a=""></stop><stop offset="1" stop-color="#FFF465" data-v-e99fc08a=""></stop></linearGradient><linearGradient id="paint4_linear_2623_70091" x1="166.325" y1="212.848" x2="145.937" y2="258.061" gradientUnits="userSpaceOnUse" data-v-e99fc08a=""><stop stop-color="#FFAEFE" data-v-e99fc08a=""></stop><stop offset="1" stop-color="#FFF465" data-v-e99fc08a=""></stop></linearGradient><linearGradient id="paint5_linear_2623_70091" x1="102.263" y1="183.948" x2="81.8675" y2="229.156" gradientUnits="userSpaceOnUse" data-v-e99fc08a=""><stop stop-color="#FFAEFE" data-v-e99fc08a=""></stop><stop offset="1" stop-color="#FFF465" data-v-e99fc08a=""></stop></linearGradient><linearGradient id="paint6_linear_2623_70091" x1="131.65" y1="175.252" x2="175.646" y2="194.598" gradientUnits="userSpaceOnUse" data-v-e99fc08a=""><stop stop-color="#FFAEFE" data-v-e99fc08a=""></stop><stop offset="1" stop-color="#FFF465" data-v-e99fc08a=""></stop></linearGradient><linearGradient id="paint0_linear_2623_70091" x1="14.4113" y1="57.8229" x2="23.2757" y2="146.364" gradientUnits="userSpaceOnUse" data-v-e99fc08a=""><stop stop-color="#FFAEFE" data-v-e99fc08a=""></stop><stop offset="1" stop-color="#FFF465" data-v-e99fc08a=""></stop></linearGradient><linearGradient id="paint1_linear_2623_70091" x1="113.229" y1="47.9305" x2="122.093" y2="136.472" gradientUnits="userSpaceOnUse" data-v-e99fc08a=""><stop stop-color="#FFAEFE" data-v-e99fc08a=""></stop><stop offset="1" stop-color="#FFF465" data-v-e99fc08a=""></stop></linearGradient><linearGradient id="paint2_linear_2623_70091" x1="70.4931" y1="52.2083" x2="79.3575" y2="140.749" gradientUnits="userSpaceOnUse" data-v-e99fc08a=""><stop stop-color="#FFAEFE" data-v-e99fc08a=""></stop><stop offset="1" stop-color="#FFF465" data-v-e99fc08a=""></stop></linearGradient><linearGradient id="paint3_linear_2623_70091" x1="201.947" y1="211.202" x2="205.237" y2="213.084" gradientUnits="userSpaceOnUse" data-v-e99fc08a=""><stop stop-color="#FFAEFE" data-v-e99fc08a=""></stop><stop offset="1" stop-color="#FFF465" data-v-e99fc08a=""></stop></linearGradient><linearGradient id="paint4_linear_2623_70091" x1="166.325" y1="212.848" x2="145.937" y2="258.061" gradientUnits="userSpaceOnUse" data-v-e99fc08a=""><stop stop-color="#FFAEFE" data-v-e99fc08a=""></stop><stop offset="1" stop-color="#FFF465" data-v-e99fc08a=""></stop></linearGradient><linearGradient id="paint5_linear_2623_70091" x1="102.263" y1="183.948" x2="81.8675" y2="229.156" gradientUnits="userSpaceOnUse" data-v-e99fc08a=""><stop stop-color="#FFAEFE" data-v-e99fc08a=""></stop><stop offset="1" stop-color="#FFF465" data-v-e99fc08a=""></stop></linearGradient><linearGradient id="paint6_linear_2623_70091" x1="131.65" y1="175.252" x2="175.646" y2="194.598" gradientUnits="userSpaceOnUse" data-v-e99fc08a=""><stop stop-color="#FFAEFE" data-v-e99fc08a=""></stop><stop offset="1" stop-color="#FFF465" data-v-e99fc08a=""></stop></linearGradient></defs></svg>