<svg xmlns:xlink="http://www.w3.org/1999/xlink" xmlns="http://www.w3.org/2000/svg" width="247" height="199" viewBox="0 0 247 199" fill="none" class="mx-auto my-10 mt-auto h-[150px] w-auto" data-v-e99fc08a=""><path d="M112.432 4.93889C113.218 1.63546 115.813 0.158636 118.356 1.08705L242.768 46.372C245.311 47.2961 246.939 50.0296 246.089 53.5921L220.888 159.518C220.262 162.152 217.671 163.546 215.127 162.622L90.7155 117.337C88.1721 116.413 86.6046 113.503 87.2307 110.869L112.432 4.94321V4.93889Z" fill="#1B1B1C" stroke="#1B1B1C" stroke-width="0.361894px" stroke-linecap="round" stroke-linejoin="round" data-v-e99fc08a=""></path><path d="M242.134 50.5354C242.984 50.8463 243.507 51.8179 243.295 52.6945L218.647 156.297C218.44 157.173 217.572 157.64 216.725 157.333L91.6832 111.824C90.8325 111.513 90.31 110.541 90.5216 109.665L115.17 6.06226C115.377 5.18567 116.245 4.7193 117.091 5.0259L242.134 50.5354Z" fill="#48FF91" data-v-e99fc08a=""></path><path d="M2.09493 144.306C0.825373 144.768 0.186279 145.377 0.186279 145.99C0.186279 146.603 0.821055 147.212 2.09493 147.674L126.507 192.959C129.05 193.883 133.209 193.883 135.752 192.959L215.621 163.889C216.891 163.427 217.53 162.818 217.53 162.205C217.53 161.591 216.895 160.983 215.621 160.521L91.2097 115.236C88.6663 114.311 84.5078 114.311 81.9644 115.236L2.09493 144.306Z" fill="url(&quot;#paint0_linear_2525_139334&quot;)" stroke="#0500FF" stroke-width="0.361894px" stroke-miterlimit="10" data-v-e99fc08a=""></path><path d="M215.626 163.878L135.756 192.948C133.213 193.872 129.054 193.872 126.511 192.948L2.09493 147.668C0.825373 147.205 0.186279 146.597 0.186279 145.983V150.163C0.186279 150.772 0.821055 151.385 2.09493 151.848L126.507 197.133C129.05 198.057 133.209 198.057 135.752 197.133L215.621 168.062C216.891 167.6 217.53 166.991 217.53 166.378V162.198C217.53 162.807 216.895 163.416 215.621 163.882L215.626 163.878Z" fill="url(&quot;#paint1_linear_2525_139334&quot;)" data-v-e99fc08a=""></path><path d="M243.254 50.9409L243.677 51.0964" stroke="#1B1B1C" stroke-width="0.361894px" stroke-linecap="round" stroke-linejoin="round" data-v-e99fc08a="" fill="none"></path><path d="M115.554 4.45898L115.977 4.61444" stroke="#1B1B1C" stroke-width="0.361894px" stroke-linecap="round" stroke-linejoin="round" data-v-e99fc08a="" fill="none"></path><path d="M95.3895 121.646C93.9213 121.11 91.5247 121.11 90.0565 121.646L50.0915 136.194C48.6233 136.729 48.6233 137.601 50.0915 138.133L151.91 175.191C153.379 175.727 155.775 175.727 157.243 175.191L197.208 160.643C198.677 160.108 198.677 159.236 197.208 158.705L95.3895 121.646Z" fill="black" stroke="#1B1B1C" stroke-width="0.361894px" stroke-miterlimit="10" data-v-e99fc08a=""></path><path d="M85.9745 123.137L190.941 161.344" stroke="#0500FF" stroke-width="0.361894px" stroke-linecap="round" stroke-linejoin="round" data-v-e99fc08a="" fill="none"></path><path d="M78.7297 125.774L183.701 163.978" stroke="#0500FF" stroke-width="0.361894px" stroke-linecap="round" stroke-linejoin="round" data-v-e99fc08a="" fill="none"></path><path d="M71.4901 128.41L176.461 166.617" stroke="#0500FF" stroke-width="0.361894px" stroke-linecap="round" stroke-linejoin="round" data-v-e99fc08a="" fill="none"></path><path d="M64.2559 131.042L169.227 169.25" stroke="#0500FF" stroke-width="0.361894px" stroke-linecap="round" stroke-linejoin="round" data-v-e99fc08a="" fill="none"></path><path d="M57.0164 133.678L161.988 171.885" stroke="#0500FF" stroke-width="0.361894px" stroke-linecap="round" stroke-linejoin="round" data-v-e99fc08a="" fill="none"></path><path d="M102.706 124.312L95.9483 126.773" stroke="#0500FF" stroke-width="0.361894px" stroke-linecap="round" stroke-linejoin="round" data-v-e99fc08a="" fill="none"></path><path d="M93.2119 125.774L85.9745 128.409" stroke="#0500FF" stroke-width="0.361894px" stroke-linecap="round" stroke-linejoin="round" data-v-e99fc08a="" fill="none"></path><path d="M89.14 129.56L81.9026 132.194" stroke="#0500FF" stroke-width="0.361894px" stroke-linecap="round" stroke-linejoin="round" data-v-e99fc08a="" fill="none"></path><path d="M85.3453 133.448L78.1036 136.086" stroke="#0500FF" stroke-width="0.361894px" stroke-linecap="round" stroke-linejoin="round" data-v-e99fc08a="" fill="none"></path><path d="M81.1138 137.18L73.8765 139.814" stroke="#0500FF" stroke-width="0.361894px" stroke-linecap="round" stroke-linejoin="round" data-v-e99fc08a="" fill="none"></path><path d="M67.721 137.573L60.4836 140.207" stroke="#0500FF" stroke-width="0.361894px" stroke-linecap="round" stroke-linejoin="round" data-v-e99fc08a="" fill="none"></path><path d="M109.95 126.944L103.188 129.405" stroke="#0500FF" stroke-width="0.361894px" stroke-linecap="round" stroke-linejoin="round" data-v-e99fc08a="" fill="none"></path><path d="M100.441 128.41L93.2034 131.044" stroke="#0500FF" stroke-width="0.361894px" stroke-linecap="round" stroke-linejoin="round" data-v-e99fc08a="" fill="none"></path><path d="M96.3742 132.195L89.1368 134.829" stroke="#0500FF" stroke-width="0.361894px" stroke-linecap="round" stroke-linejoin="round" data-v-e99fc08a="" fill="none"></path><path d="M92.5858 136.085L85.3485 138.72" stroke="#0500FF" stroke-width="0.361894px" stroke-linecap="round" stroke-linejoin="round" data-v-e99fc08a="" fill="none"></path><path d="M88.348 139.815L81.1107 142.449" stroke="#0500FF" stroke-width="0.361894px" stroke-linecap="round" stroke-linejoin="round" data-v-e99fc08a="" fill="none"></path><path d="M74.9605 140.208L67.7232 142.842" stroke="#0500FF" stroke-width="0.361894px" stroke-linecap="round" stroke-linejoin="round" data-v-e99fc08a="" fill="none"></path><path d="M117.19 129.582L110.427 132.043" stroke="#0500FF" stroke-width="0.361894px" stroke-linecap="round" stroke-linejoin="round" data-v-e99fc08a="" fill="none"></path><path d="M107.686 131.042L100.448 133.677" stroke="#0500FF" stroke-width="0.361894px" stroke-linecap="round" stroke-linejoin="round" data-v-e99fc08a="" fill="none"></path><path d="M103.608 134.831L96.371 137.465" stroke="#0500FF" stroke-width="0.361894px" stroke-linecap="round" stroke-linejoin="round" data-v-e99fc08a="" fill="none"></path><path d="M99.82 138.721L92.5827 141.355" stroke="#0500FF" stroke-width="0.361894px" stroke-linecap="round" stroke-linejoin="round" data-v-e99fc08a="" fill="none"></path><path d="M95.5876 142.448L88.3503 145.082" stroke="#0500FF" stroke-width="0.361894px" stroke-linecap="round" stroke-linejoin="round" data-v-e99fc08a="" fill="none"></path><path d="M82.1947 142.841L74.9574 145.479" stroke="#0500FF" stroke-width="0.361894px" stroke-linecap="round" stroke-linejoin="round" data-v-e99fc08a="" fill="none"></path><path d="M124.425 132.214L117.667 134.676" stroke="#0500FF" stroke-width="0.361894px" stroke-linecap="round" stroke-linejoin="round" data-v-e99fc08a="" fill="none"></path><path d="M114.924 133.678L107.682 136.312" stroke="#0500FF" stroke-width="0.361894px" stroke-linecap="round" stroke-linejoin="round" data-v-e99fc08a="" fill="none"></path><path d="M110.853 137.464L103.616 140.098" stroke="#0500FF" stroke-width="0.361894px" stroke-linecap="round" stroke-linejoin="round" data-v-e99fc08a="" fill="none"></path><path d="M107.06 141.356L99.8223 143.991" stroke="#0500FF" stroke-width="0.361894px" stroke-linecap="round" stroke-linejoin="round" data-v-e99fc08a="" fill="none"></path><path d="M102.826 145.083L95.5845 147.717" stroke="#0500FF" stroke-width="0.361894px" stroke-linecap="round" stroke-linejoin="round" data-v-e99fc08a="" fill="none"></path><path d="M89.4332 145.479L82.1916 148.113" stroke="#0500FF" stroke-width="0.361894px" stroke-linecap="round" stroke-linejoin="round" data-v-e99fc08a="" fill="none"></path><path d="M131.659 134.847L124.901 137.309" stroke="#0500FF" stroke-width="0.361894px" stroke-linecap="round" stroke-linejoin="round" data-v-e99fc08a="" fill="none"></path><path d="M122.159 136.313L114.922 138.947" stroke="#0500FF" stroke-width="0.361894px" stroke-linecap="round" stroke-linejoin="round" data-v-e99fc08a="" fill="none"></path><path d="M118.097 140.102L110.855 142.736" stroke="#0500FF" stroke-width="0.361894px" stroke-linecap="round" stroke-linejoin="round" data-v-e99fc08a="" fill="none"></path><path d="M114.299 143.988L107.062 146.622" stroke="#0500FF" stroke-width="0.361894px" stroke-linecap="round" stroke-linejoin="round" data-v-e99fc08a="" fill="none"></path><path d="M110.067 147.715L102.829 150.349" stroke="#0500FF" stroke-width="0.361894px" stroke-linecap="round" stroke-linejoin="round" data-v-e99fc08a="" fill="none"></path><path d="M138.903 137.482L132.141 139.943" stroke="#0500FF" stroke-width="0.361894px" stroke-linecap="round" stroke-linejoin="round" data-v-e99fc08a="" fill="none"></path><path d="M129.399 138.945L122.162 141.579" stroke="#0500FF" stroke-width="0.361894px" stroke-linecap="round" stroke-linejoin="round" data-v-e99fc08a="" fill="none"></path><path d="M125.327 142.731L118.09 145.369" stroke="#0500FF" stroke-width="0.361894px" stroke-linecap="round" stroke-linejoin="round" data-v-e99fc08a="" fill="none"></path><path d="M121.538 146.624L114.296 149.258" stroke="#0500FF" stroke-width="0.361894px" stroke-linecap="round" stroke-linejoin="round" data-v-e99fc08a="" fill="none"></path><path d="M117.301 150.351L110.063 152.985" stroke="#0500FF" stroke-width="0.361894px" stroke-linecap="round" stroke-linejoin="round" data-v-e99fc08a="" fill="none"></path><path d="M146.137 140.117L139.375 142.574" stroke="#0500FF" stroke-width="0.361894px" stroke-linecap="round" stroke-linejoin="round" data-v-e99fc08a="" fill="none"></path><path d="M136.638 141.578L129.401 144.212" stroke="#0500FF" stroke-width="0.361894px" stroke-linecap="round" stroke-linejoin="round" data-v-e99fc08a="" fill="none"></path><path d="M132.567 145.369L125.329 148.003" stroke="#0500FF" stroke-width="0.361894px" stroke-linecap="round" stroke-linejoin="round" data-v-e99fc08a="" fill="none"></path><path d="M128.778 149.256L121.541 151.89" stroke="#0500FF" stroke-width="0.361894px" stroke-linecap="round" stroke-linejoin="round" data-v-e99fc08a="" fill="none"></path><path d="M124.54 152.986L117.303 155.624" stroke="#0500FF" stroke-width="0.361894px" stroke-linecap="round" stroke-linejoin="round" data-v-e99fc08a="" fill="none"></path><path d="M153.378 142.752L146.62 145.214" stroke="#0500FF" stroke-width="0.361894px" stroke-linecap="round" stroke-linejoin="round" data-v-e99fc08a="" fill="none"></path><path d="M143.867 144.213L136.63 146.847" stroke="#0500FF" stroke-width="0.361894px" stroke-linecap="round" stroke-linejoin="round" data-v-e99fc08a="" fill="none"></path><path d="M139.806 148.004L132.569 150.638" stroke="#0500FF" stroke-width="0.361894px" stroke-linecap="round" stroke-linejoin="round" data-v-e99fc08a="" fill="none"></path><path d="M136.012 151.892L128.775 154.526" stroke="#0500FF" stroke-width="0.361894px" stroke-linecap="round" stroke-linejoin="round" data-v-e99fc08a="" fill="none"></path><path d="M131.779 155.621L124.537 158.255" stroke="#0500FF" stroke-width="0.361894px" stroke-linecap="round" stroke-linejoin="round" data-v-e99fc08a="" fill="none"></path><path d="M160.612 145.391L153.854 147.852" stroke="#0500FF" stroke-width="0.361894px" stroke-linecap="round" stroke-linejoin="round" data-v-e99fc08a="" fill="none"></path><path d="M151.111 146.849L143.87 149.487" stroke="#0500FF" stroke-width="0.361894px" stroke-linecap="round" stroke-linejoin="round" data-v-e99fc08a="" fill="none"></path><path d="M147.05 150.64L139.808 153.274" stroke="#0500FF" stroke-width="0.361894px" stroke-linecap="round" stroke-linejoin="round" data-v-e99fc08a="" fill="none"></path><path d="M143.252 154.527L136.015 157.161" stroke="#0500FF" stroke-width="0.361894px" stroke-linecap="round" stroke-linejoin="round" data-v-e99fc08a="" fill="none"></path><path d="M139.02 158.256L131.782 160.89" stroke="#0500FF" stroke-width="0.361894px" stroke-linecap="round" stroke-linejoin="round" data-v-e99fc08a="" fill="none"></path><path d="M167.852 148.023L161.094 150.484" stroke="#0500FF" stroke-width="0.361894px" stroke-linecap="round" stroke-linejoin="round" data-v-e99fc08a="" fill="none"></path><path d="M158.352 149.486L151.114 152.12" stroke="#0500FF" stroke-width="0.361894px" stroke-linecap="round" stroke-linejoin="round" data-v-e99fc08a="" fill="none"></path><path d="M154.285 153.272L147.048 155.907" stroke="#0500FF" stroke-width="0.361894px" stroke-linecap="round" stroke-linejoin="round" data-v-e99fc08a="" fill="none"></path><path d="M150.49 157.159L143.249 159.798" stroke="#0500FF" stroke-width="0.361894px" stroke-linecap="round" stroke-linejoin="round" data-v-e99fc08a="" fill="none"></path><path d="M146.254 160.892L139.016 163.526" stroke="#0500FF" stroke-width="0.361894px" stroke-linecap="round" stroke-linejoin="round" data-v-e99fc08a="" fill="none"></path><path d="M132.866 161.285L125.629 163.919" stroke="#0500FF" stroke-width="0.361894px" stroke-linecap="round" stroke-linejoin="round" data-v-e99fc08a="" fill="none"></path><path d="M175.09 150.656L168.328 153.117" stroke="#0500FF" stroke-width="0.361894px" stroke-linecap="round" stroke-linejoin="round" data-v-e99fc08a="" fill="none"></path><path d="M165.586 152.122L158.349 154.756" stroke="#0500FF" stroke-width="0.361894px" stroke-linecap="round" stroke-linejoin="round" data-v-e99fc08a="" fill="none"></path><path d="M161.519 155.908L154.282 158.542" stroke="#0500FF" stroke-width="0.361894px" stroke-linecap="round" stroke-linejoin="round" data-v-e99fc08a="" fill="none"></path><path d="M157.731 159.798L150.494 162.432" stroke="#0500FF" stroke-width="0.361894px" stroke-linecap="round" stroke-linejoin="round" data-v-e99fc08a="" fill="none"></path><path d="M153.493 163.527L146.256 166.161" stroke="#0500FF" stroke-width="0.361894px" stroke-linecap="round" stroke-linejoin="round" data-v-e99fc08a="" fill="none"></path><path d="M140.1 163.92L132.863 166.555" stroke="#0500FF" stroke-width="0.361894px" stroke-linecap="round" stroke-linejoin="round" data-v-e99fc08a="" fill="none"></path><path d="M182.33 153.291L175.567 155.752" stroke="#0500FF" stroke-width="0.361894px" stroke-linecap="round" stroke-linejoin="round" data-v-e99fc08a="" fill="none"></path><path d="M172.825 154.754L165.588 157.388" stroke="#0500FF" stroke-width="0.361894px" stroke-linecap="round" stroke-linejoin="round" data-v-e99fc08a="" fill="none"></path><path d="M168.759 158.54L161.522 161.174" stroke="#0500FF" stroke-width="0.361894px" stroke-linecap="round" stroke-linejoin="round" data-v-e99fc08a="" fill="none"></path><path d="M164.965 162.432L157.728 165.066" stroke="#0500FF" stroke-width="0.361894px" stroke-linecap="round" stroke-linejoin="round" data-v-e99fc08a="" fill="none"></path><path d="M147.34 166.552L140.103 169.191" stroke="#0500FF" stroke-width="0.361894px" stroke-linecap="round" stroke-linejoin="round" data-v-e99fc08a="" fill="none"></path><path d="M189.565 155.923L182.807 158.385" stroke="#0500FF" stroke-width="0.361894px" stroke-linecap="round" stroke-linejoin="round" data-v-e99fc08a="" fill="none"></path><path d="M180.069 157.389L172.828 160.023" stroke="#0500FF" stroke-width="0.361894px" stroke-linecap="round" stroke-linejoin="round" data-v-e99fc08a="" fill="none"></path><path d="M175.998 161.175L168.761 163.809" stroke="#0500FF" stroke-width="0.361894px" stroke-linecap="round" stroke-linejoin="round" data-v-e99fc08a="" fill="none"></path><path d="M44.4155 163.073L75.1654 151.88C76.1197 151.53 77.6829 151.53 78.6415 151.88L119.008 166.571C119.962 166.92 119.962 167.486 119.008 167.836L88.2582 179.029C88.2582 180.048 87.4766 180.592 86.5223 180.246L46.1557 165.556C45.2014 165.206 44.4198 164.092 44.4198 163.073H44.4155Z" stroke="#0500FF" stroke-width="0.361894px" stroke-miterlimit="10" data-v-e99fc08a="" fill="none"></path><path d="M76.3399 156.09C76.5951 156.09 76.802 156.005 76.802 155.9C76.802 155.795 76.5951 155.71 76.3399 155.71C76.0847 155.71 75.8779 155.795 75.8779 155.9C75.8779 156.005 76.0847 156.09 76.3399 156.09Z" fill="#0500FF" data-v-e99fc08a=""></path><path d="M82.515 158.334C82.7702 158.334 82.9771 158.249 82.9771 158.144C82.9771 158.039 82.7702 157.954 82.515 157.954C82.2598 157.954 82.053 158.039 82.053 158.144C82.053 158.249 82.2598 158.334 82.515 158.334Z" fill="#0500FF" data-v-e99fc08a=""></path><path d="M88.6895 160.579C88.9446 160.579 89.1515 160.494 89.1515 160.389C89.1515 160.284 88.9446 160.199 88.6895 160.199C88.4343 160.199 88.2274 160.284 88.2274 160.389C88.2274 160.494 88.4343 160.579 88.6895 160.579Z" fill="#0500FF" data-v-e99fc08a=""></path><path d="M94.8642 162.832C95.1194 162.832 95.3263 162.747 95.3263 162.642C95.3263 162.537 95.1194 162.452 94.8642 162.452C94.609 162.452 94.4022 162.537 94.4022 162.642C94.4022 162.747 94.609 162.832 94.8642 162.832Z" fill="#0500FF" data-v-e99fc08a=""></path><path d="M101.039 165.074C101.294 165.074 101.501 164.989 101.501 164.884C101.501 164.779 101.294 164.694 101.039 164.694C100.784 164.694 100.577 164.779 100.577 164.884C100.577 164.989 100.784 165.074 101.039 165.074Z" fill="#0500FF" data-v-e99fc08a=""></path><path d="M107.208 167.326C107.464 167.326 107.67 167.241 107.67 167.136C107.67 167.031 107.464 166.946 107.208 166.946C106.953 166.946 106.746 167.031 106.746 167.136C106.746 167.241 106.953 167.326 107.208 167.326Z" fill="#0500FF" data-v-e99fc08a=""></path><path d="M70.1652 158.338C70.4204 158.338 70.6272 158.252 70.6272 158.148C70.6272 158.043 70.4204 157.958 70.1652 157.958C69.91 157.958 69.7031 158.043 69.7031 158.148C69.7031 158.252 69.91 158.338 70.1652 158.338Z" fill="#0500FF" data-v-e99fc08a=""></path><path d="M76.3399 160.579C76.5951 160.579 76.802 160.494 76.802 160.389C76.802 160.284 76.5951 160.199 76.3399 160.199C76.0847 160.199 75.8779 160.284 75.8779 160.389C75.8779 160.494 76.0847 160.579 76.3399 160.579Z" fill="#0500FF" data-v-e99fc08a=""></path><path d="M82.515 162.829C82.7702 162.829 82.9771 162.744 82.9771 162.639C82.9771 162.534 82.7702 162.449 82.515 162.449C82.2598 162.449 82.053 162.534 82.053 162.639C82.053 162.744 82.2598 162.829 82.515 162.829Z" fill="#0500FF" data-v-e99fc08a=""></path><path d="M88.6895 165.074C88.9446 165.074 89.1515 164.989 89.1515 164.884C89.1515 164.779 88.9446 164.694 88.6895 164.694C88.4343 164.694 88.2274 164.779 88.2274 164.884C88.2274 164.989 88.4343 165.074 88.6895 165.074Z" fill="#0500FF" data-v-e99fc08a=""></path><path d="M94.8642 167.326C95.1194 167.326 95.3263 167.241 95.3263 167.136C95.3263 167.031 95.1194 166.946 94.8642 166.946C94.609 166.946 94.4022 167.031 94.4022 167.136C94.4022 167.241 94.609 167.326 94.8642 167.326Z" fill="#0500FF" data-v-e99fc08a=""></path><path d="M101.039 169.571C101.294 169.571 101.501 169.486 101.501 169.381C101.501 169.276 101.294 169.191 101.039 169.191C100.784 169.191 100.577 169.276 100.577 169.381C100.577 169.486 100.784 169.571 101.039 169.571Z" fill="#0500FF" data-v-e99fc08a=""></path><path d="M63.9904 160.579C64.2456 160.579 64.4525 160.494 64.4525 160.389C64.4525 160.284 64.2456 160.199 63.9904 160.199C63.7352 160.199 63.5284 160.284 63.5284 160.389C63.5284 160.494 63.7352 160.579 63.9904 160.579Z" fill="#0500FF" data-v-e99fc08a=""></path><path d="M70.1652 162.832C70.4204 162.832 70.6272 162.747 70.6272 162.642C70.6272 162.537 70.4204 162.452 70.1652 162.452C69.91 162.452 69.7031 162.537 69.7031 162.642C69.7031 162.747 69.91 162.832 70.1652 162.832Z" fill="#0500FF" data-v-e99fc08a=""></path><path d="M76.3399 165.074C76.5951 165.074 76.802 164.989 76.802 164.884C76.802 164.779 76.5951 164.694 76.3399 164.694C76.0847 164.694 75.8779 164.779 75.8779 164.884C75.8779 164.989 76.0847 165.074 76.3399 165.074Z" fill="#0500FF" data-v-e99fc08a=""></path><path d="M82.515 167.326C82.7702 167.326 82.9771 167.241 82.9771 167.136C82.9771 167.031 82.7702 166.946 82.515 166.946C82.2598 166.946 82.053 167.031 82.053 167.136C82.053 167.241 82.2598 167.326 82.515 167.326Z" fill="#0500FF" data-v-e99fc08a=""></path><path d="M88.6895 169.571C88.9446 169.571 89.1515 169.486 89.1515 169.381C89.1515 169.276 88.9446 169.191 88.6895 169.191C88.4343 169.191 88.2274 169.276 88.2274 169.381C88.2274 169.486 88.4343 169.571 88.6895 169.571Z" fill="#0500FF" data-v-e99fc08a=""></path><path d="M94.8642 171.821C95.1194 171.821 95.3263 171.736 95.3263 171.631C95.3263 171.526 95.1194 171.441 94.8642 171.441C94.609 171.441 94.4022 171.526 94.4022 171.631C94.4022 171.736 94.609 171.821 94.8642 171.821Z" fill="#0500FF" data-v-e99fc08a=""></path><path d="M57.8157 162.829C58.0709 162.829 58.2777 162.744 58.2777 162.639C58.2777 162.534 58.0709 162.449 57.8157 162.449C57.5605 162.449 57.3536 162.534 57.3536 162.639C57.3536 162.744 57.5605 162.829 57.8157 162.829Z" fill="#0500FF" data-v-e99fc08a=""></path><path d="M63.9904 165.074C64.2456 165.074 64.4525 164.989 64.4525 164.884C64.4525 164.779 64.2456 164.694 63.9904 164.694C63.7352 164.694 63.5284 164.779 63.5284 164.884C63.5284 164.989 63.7352 165.074 63.9904 165.074Z" fill="#0500FF" data-v-e99fc08a=""></path><path d="M70.1652 167.326C70.4204 167.326 70.6272 167.241 70.6272 167.136C70.6272 167.031 70.4204 166.946 70.1652 166.946C69.91 166.946 69.7031 167.031 69.7031 167.136C69.7031 167.241 69.91 167.326 70.1652 167.326Z" fill="#0500FF" data-v-e99fc08a=""></path><path d="M76.3399 169.571C76.5951 169.571 76.802 169.486 76.802 169.381C76.802 169.276 76.5951 169.191 76.3399 169.191C76.0847 169.191 75.8779 169.276 75.8779 169.381C75.8779 169.486 76.0847 169.571 76.3399 169.571Z" fill="#0500FF" data-v-e99fc08a=""></path><path d="M82.515 171.821C82.7702 171.821 82.9771 171.736 82.9771 171.631C82.9771 171.526 82.7702 171.441 82.515 171.441C82.2598 171.441 82.053 171.526 82.053 171.631C82.053 171.736 82.2598 171.821 82.515 171.821Z" fill="#0500FF" data-v-e99fc08a=""></path><path d="M88.6895 174.066C88.9446 174.066 89.1515 173.981 89.1515 173.876C89.1515 173.771 88.9446 173.686 88.6895 173.686C88.4343 173.686 88.2274 173.771 88.2274 173.876C88.2274 173.981 88.4343 174.066 88.6895 174.066Z" fill="#0500FF" data-v-e99fc08a=""></path><path d="M147.541 192.842L163.121 187.172L159.68 184.244L144.1 189.914L147.541 192.842Z" fill="#1B1B1C" data-v-e99fc08a=""></path><path d="M165.215 186.408L167.879 185.44L164.438 182.513L161.773 183.48L165.215 186.408Z" fill="#1B1B1C" data-v-e99fc08a=""></path><path d="M215.626 163.878L135.756 192.948C133.213 193.872 129.054 193.872 126.511 192.948L2.09493 147.668C0.825373 147.205 0.186279 146.597 0.186279 145.983V150.163C0.186279 150.772 0.821055 151.385 2.09493 151.848L126.507 197.133C129.05 198.057 133.209 198.057 135.752 197.133L215.621 168.062C216.891 167.6 217.53 166.991 217.53 166.378V162.198C217.53 162.807 216.895 163.416 215.621 163.882L215.626 163.878Z" stroke="#0500FF" stroke-width="0.361894px" stroke-miterlimit="10" data-v-e99fc08a="" fill="none"></path><path d="M128.295 121.09L125.035 119.902L127.423 109.875L130.679 111.063L128.295 121.09Z" fill="#1B1B1C" data-v-e99fc08a=""></path><path d="M134.995 118.758L131.739 117.571L133.078 111.936L136.338 113.119L134.995 118.758Z" fill="#1B1B1C" data-v-e99fc08a=""></path><path d="M141.02 119.26L137.764 118.076L140.593 106.188L143.849 107.376L141.02 119.26Z" fill="#1B1B1C" data-v-e99fc08a=""></path><path d="M145.777 125.066L142.521 123.883L144.905 113.856L148.165 115.039L145.777 125.066Z" fill="#1B1B1C" data-v-e99fc08a=""></path><path d="M158.291 124.175L155.031 122.987L156.223 117.974L159.483 119.161L158.291 124.175Z" fill="#1B1B1C" data-v-e99fc08a=""></path><path d="M165.135 121.216L161.875 120.033L162.397 117.835L165.657 119.022L165.135 121.216Z" fill="#1B1B1C" data-v-e99fc08a=""></path><path d="M170.064 126.307L166.808 125.12L167.685 121.428L170.945 122.615L170.064 126.307Z" fill="#1B1B1C" data-v-e99fc08a=""></path><path d="M176.158 126.52L172.902 125.332L175.619 113.923L178.875 115.111L176.158 126.52Z" fill="#1B1B1C" data-v-e99fc08a=""></path><path d="M184.408 117.677L181.148 116.489L181.744 113.985L185.004 115.172L184.408 117.677Z" fill="#1B1B1C" data-v-e99fc08a=""></path><path d="M190.14 119.406L186.884 118.218L187.92 113.861L191.176 115.049L190.14 119.406Z" fill="#1B1B1C" data-v-e99fc08a=""></path><path d="M196.314 119.284L193.053 118.096L197.004 101.501L200.26 102.689L196.314 119.284Z" fill="#1B1B1C" data-v-e99fc08a=""></path><path d="M204.896 109.051L201.636 107.863L204.024 97.8364L207.28 99.0239L204.896 109.051Z" fill="#1B1B1C" data-v-e99fc08a=""></path><path d="M214.297 121.173L211.037 119.985L216.832 95.6265L220.093 96.814L214.297 121.173Z" fill="#1B1B1C" data-v-e99fc08a=""></path><path d="M225.203 101.162L221.947 99.9792L222.824 96.2871L226.084 97.4703L225.203 101.162Z" fill="#1B1B1C" data-v-e99fc08a=""></path><path d="M208.643 119.112L205.387 117.929L208.725 103.891L211.985 105.078L208.643 119.112Z" fill="#1B1B1C" data-v-e99fc08a=""></path><path d="M151.244 127.952L147.984 126.765L149.651 119.761L152.911 120.944L151.244 127.952Z" fill="#1B1B1C" data-v-e99fc08a=""></path><path d="M142.952 14.4399L117.544 121.233" stroke="#1B1B1C" stroke-width="0.361894px" stroke-miterlimit="10" data-v-e99fc08a="" fill="none"></path><path d="M97.3808 107.294C97.4912 105.865 96.7192 104.64 95.6563 104.558C94.5934 104.476 93.6423 105.568 93.5318 106.997C93.4213 108.426 94.1934 109.651 95.2563 109.733C96.3191 109.815 97.2703 108.724 97.3808 107.294Z" fill="#1B1B1C" data-v-e99fc08a=""></path><path d="M99.3071 99.2066C99.4175 97.7775 98.6454 96.5525 97.5826 96.4703C96.5197 96.3881 95.5685 97.48 95.4581 98.9091C95.3476 100.338 96.1197 101.563 97.1826 101.645C98.2454 101.727 99.1966 100.636 99.3071 99.2066Z" fill="#1B1B1C" data-v-e99fc08a=""></path><path d="M101.228 91.1216C101.338 89.6926 100.566 88.4675 99.5035 88.3853C98.4406 88.3032 97.4894 89.3951 97.379 90.8241C97.2685 92.2532 98.0406 93.4782 99.1035 93.5604C100.166 93.6425 101.117 92.5507 101.228 91.1216Z" fill="#1B1B1C" data-v-e99fc08a=""></path><path d="M209.937 38.6787L208.982 42.6903C208.788 43.5151 209.276 44.4262 210.075 44.7199L235.898 54.1163C236.697 54.4056 237.509 53.9695 237.703 53.1447L238.657 49.1331" stroke="#1B1B1C" stroke-width="0.361894px" stroke-miterlimit="10" data-v-e99fc08a="" fill="none"></path><path d="M227.603 51.0983L228.916 45.584" stroke="#1B1B1C" stroke-width="0.361894px" stroke-miterlimit="10" data-v-e99fc08a="" fill="none"></path><path d="M218.047 47.6179L219.36 42.1035" stroke="#1B1B1C" stroke-width="0.361894px" stroke-miterlimit="10" data-v-e99fc08a="" fill="none"></path><path d="M196.143 44.2927C198.289 45.0743 199.61 47.527 199.083 49.7509L185.999 104.743C185.472 106.963 183.283 108.142 181.137 107.36L137.247 91.387C135.1 90.6054 133.779 88.1527 134.306 85.9288L147.39 30.9365C147.917 28.717 150.106 27.5381 152.252 28.3197L196.143 44.2927Z" fill="#1B1B1C" stroke="#1B1B1C" stroke-width="0.361894px" stroke-miterlimit="10" data-v-e99fc08a=""></path><path d="M163.33 32.3481L152.124 79.4382C151.597 81.6577 152.918 84.1148 155.065 84.8964L187.874 96.8362" stroke="#48FF91" stroke-width="0.361894px" stroke-miterlimit="10" data-v-e99fc08a="" fill="none"></path><path d="M190.723 84.9008L172.893 78.4105C170.747 77.6289 169.426 75.1762 169.953 72.9523L178.317 37.7979" stroke="#48FF91" stroke-width="0.361894px" stroke-miterlimit="10" data-v-e99fc08a="" fill="none"></path><path d="M134.313 85.9296L195.804 63.5483" stroke="#48FF91" stroke-width="0.361894px" stroke-miterlimit="10" data-v-e99fc08a="" fill="none"></path><path d="M141.093 57.4256L186.658 40.8394" stroke="#48FF91" stroke-width="0.361894px" stroke-miterlimit="10" data-v-e99fc08a="" fill="none"></path><path d="M193.299 43.2583L187.776 66.473C187.249 68.6925 188.57 71.1496 190.717 71.9312L193.567 72.9675" stroke="#48FF91" stroke-width="0.361894px" stroke-miterlimit="10" data-v-e99fc08a="" fill="none"></path><path d="M158.338 99.0608L190.098 87.501" stroke="#48FF91" stroke-width="0.361894px" stroke-miterlimit="10" data-v-e99fc08a="" fill="none"></path><defs data-v-e99fc08a=""><linearGradient id="paint0_linear_2525_139334" x1="108.858" y1="136.516" x2="108.858" y2="188.528" gradientUnits="userSpaceOnUse" data-v-e99fc08a=""><stop stop-color="#FFAEFE" data-v-e99fc08a=""></stop><stop offset="0.97" stop-color="#FFEF6A" data-v-e99fc08a=""></stop><stop offset="1" stop-color="#FFF465" data-v-e99fc08a=""></stop></linearGradient><linearGradient id="paint1_linear_2525_139334" x1="128.001" y1="171.906" x2="132.185" y2="171.906" gradientUnits="userSpaceOnUse" data-v-e99fc08a=""><stop stop-color="#FFAEFE" data-v-e99fc08a=""></stop><stop offset="0.97" stop-color="#FFEF6A" data-v-e99fc08a=""></stop><stop offset="1" stop-color="#FFF465" data-v-e99fc08a=""></stop></linearGradient><linearGradient id="paint0_linear_2525_139334" x1="108.858" y1="136.516" x2="108.858" y2="188.528" gradientUnits="userSpaceOnUse" data-v-e99fc08a=""><stop stop-color="#FFAEFE" data-v-e99fc08a=""></stop><stop offset="0.97" stop-color="#FFEF6A" data-v-e99fc08a=""></stop><stop offset="1" stop-color="#FFF465" data-v-e99fc08a=""></stop></linearGradient><linearGradient id="paint1_linear_2525_139334" x1="128.001" y1="171.906" x2="132.185" y2="171.906" gradientUnits="userSpaceOnUse" data-v-e99fc08a=""><stop stop-color="#FFAEFE" data-v-e99fc08a=""></stop><stop offset="0.97" stop-color="#FFEF6A" data-v-e99fc08a=""></stop><stop offset="1" stop-color="#FFF465" data-v-e99fc08a=""></stop></linearGradient><linearGradient id="paint0_linear_2525_139334" x1="108.858" y1="136.516" x2="108.858" y2="188.528" gradientUnits="userSpaceOnUse" data-v-e99fc08a=""><stop stop-color="#FFAEFE" data-v-e99fc08a=""></stop><stop offset="0.97" stop-color="#FFEF6A" data-v-e99fc08a=""></stop><stop offset="1" stop-color="#FFF465" data-v-e99fc08a=""></stop></linearGradient><linearGradient id="paint1_linear_2525_139334" x1="128.001" y1="171.906" x2="132.185" y2="171.906" gradientUnits="userSpaceOnUse" data-v-e99fc08a=""><stop stop-color="#FFAEFE" data-v-e99fc08a=""></stop><stop offset="0.97" stop-color="#FFEF6A" data-v-e99fc08a=""></stop><stop offset="1" stop-color="#FFF465" data-v-e99fc08a=""></stop></linearGradient></defs></svg>