<svg xmlns:xlink="http://www.w3.org/1999/xlink" xmlns="http://www.w3.org/2000/svg" width="24" height="24" viewBox="0 0 24 24" fill="none" class="default-transition h-[31px] min-w-[31px] text-trustBlack dark:text-trustWhite default-transition text-trustBlack dark:text-trustWhite"><rect x="0.265625" y="0.03125" width="23.0244" height="23.0244" rx="3.61253" style="" fill="#1B1B1C"></rect><path style="" class="default-transition text-trustWhite dark:text-trustBlack" fill-rule="evenodd" clip-rule="evenodd" d="M17.1886 6.82916C16.2137 6.38345 15.1784 6.05816 14.0978 5.87695C13.9615 6.11109 13.8109 6.42886 13.7056 6.67806C12.5563 6.51165 11.4151 6.51165 10.2816 6.67806C10.1762 6.42886 10.0165 6.11109 9.88938 5.87695C8.80121 6.05841 7.76596 6.38287 6.79795 6.82916C4.84069 9.71589 4.31169 12.5345 4.57611 15.3155C5.87602 16.2601 7.13051 16.8344 8.36302 17.2123C8.66574 16.8042 8.93751 16.3659 9.17165 15.9049C8.72594 15.7385 8.30257 15.5345 7.89457 15.2928C7.99994 15.2176 8.1053 15.1339 8.20481 15.0512C10.6684 16.1771 13.3367 16.1771 15.7701 15.0512C15.7954 15.0712 15.8204 15.0913 15.8452 15.1112L15.8452 15.1112C15.9237 15.1741 16.0003 15.2357 16.0804 15.2928C15.6731 15.5345 15.2492 15.7385 14.8034 15.9049C15.0375 16.3657 15.3093 16.8042 15.612 17.2123C16.8437 16.8343 18.1058 16.2601 19.3988 15.3155C19.7241 12.0963 18.8837 9.30028 17.1914 6.82916H17.1886ZM9.51027 13.5624C8.76937 13.5624 8.16512 12.8901 8.16512 12.0662C8.16512 11.2425 8.75466 10.5699 9.51027 10.5699C10.2578 10.5699 10.8705 11.2422 10.8553 12.0662C10.8553 12.8898 10.2583 13.5624 9.51027 13.5624ZM14.4758 13.5624C13.7358 13.5624 13.13 12.8901 13.13 12.0662C13.13 11.2425 13.7204 10.5699 14.4758 10.5699C15.2234 10.5699 15.8361 11.2422 15.821 12.0662C15.821 12.8898 15.2315 13.5624 14.4758 13.5624Z" fill="#FFFFFF"></path></svg>