<svg xmlns:xlink="http://www.w3.org/1999/xlink" xmlns="http://www.w3.org/2000/svg" width="216" height="198" viewBox="0 0 216 198" fill="none" class="mx-auto my-10 mt-auto h-[150px] w-auto" data-v-e99fc08a=""><path d="M121.952 75.8107L134.351 74.3389C132.709 75.7864 132.334 78.942 133.503 81.3889L121.104 82.8607C119.935 80.4138 120.317 77.2582 121.952 75.8107Z" fill="#1B1B1C" stroke="#0500FF" stroke-width="0.600927px" stroke-linecap="round" stroke-linejoin="round" data-v-e99fc08a=""></path><path d="M135.168 84.8837L133.503 81.395L121.104 82.8668L122.77 86.3555C123.606 88.112 125.011 89.0265 126.344 88.863L138.742 87.3912C137.409 87.5487 136.004 86.6341 135.168 84.8837Z" fill="#48FF91" data-v-e99fc08a=""></path><path d="M142.782 57.3914L155.18 55.9136L134.351 74.3382L121.953 75.81L142.782 57.3914Z" fill="#1B1B1C" stroke="#0500FF" stroke-width="0.600927px" stroke-linecap="round" stroke-linejoin="round" data-v-e99fc08a=""></path><path d="M144.284 56.6905L156.682 55.2188C156.155 55.2793 155.64 55.5095 155.18 55.9213L142.782 57.3931C143.242 56.9813 143.757 56.7572 144.284 56.6905Z" fill="#48FF91" stroke="#0500FF" stroke-width="0.600927px" stroke-linecap="round" stroke-linejoin="round" data-v-e99fc08a=""></path><path d="M144.375 50.0754L156.773 48.6036C159.165 48.3189 161.691 49.9543 163.193 53.1038L150.795 54.5756C149.293 51.426 146.767 49.7907 144.375 50.0754Z" fill="#48FF91" stroke="#0500FF" stroke-width="0.600927px" stroke-linecap="round" stroke-linejoin="round" data-v-e99fc08a=""></path><path d="M181.951 146.777L194.349 145.299L200.012 157.165L187.614 158.642L181.951 146.777Z" fill="#48FF91" stroke="#0500FF" stroke-width="0.600927px" stroke-linecap="round" stroke-linejoin="round" data-v-e99fc08a=""></path><path d="M187.614 158.643L200.012 157.165L175.07 179.224L162.678 180.696L187.614 158.643Z" fill="#0500FF" stroke="#0500FF" stroke-width="0.600927px" stroke-linecap="round" stroke-linejoin="round" data-v-e99fc08a=""></path><path d="M141.679 51.335C144.617 48.7366 148.699 50.1902 150.795 54.5814L184.065 124.277C182.962 131.308 182.005 146.008 181.951 146.784L187.614 158.649L162.672 180.707L116.81 84.6411C114.715 80.25 115.393 74.5929 118.331 71.9946L141.673 51.3471L141.679 51.335ZM149.529 62.6914L147.863 59.2027C146.694 56.7558 144.417 55.9502 142.782 57.3917L121.953 75.8103C120.311 77.2579 119.936 80.4135 121.105 82.8604L122.77 86.3491C123.939 88.796 126.21 89.6077 127.852 88.1601L148.681 69.7415C150.316 68.2939 150.698 65.1383 149.529 62.6914Z" fill="url(&quot;#paint0_linear_2525_139201&quot;)" data-v-e99fc08a=""></path><path d="M150.795 54.5823L163.193 53.1045L196.463 122.8L184.065 124.271L150.795 54.5823Z" fill="#48FF91" stroke="#0500FF" stroke-width="0.600927px" stroke-linecap="round" stroke-linejoin="round" data-v-e99fc08a=""></path><path d="M184.065 124.27L196.463 122.798C195.36 129.83 194.404 144.53 194.349 145.305L181.951 146.777C181.999 146.001 182.962 131.302 184.065 124.27Z" fill="#48FF91" stroke="#0500FF" stroke-width="0.600927px" stroke-linecap="round" stroke-linejoin="round" data-v-e99fc08a=""></path><path d="M190.206 158.333L184.543 146.468C184.561 146.153 184.949 140.205 185.53 133.839L205.942 176.594L182.702 197.145L171.897 174.517L190.2 158.327L190.206 158.333Z" fill="url(&quot;#paint1_linear_2525_139201&quot;)" data-v-e99fc08a=""></path><path d="M181.775 165.789L186.469 175.619L184.434 181.64L189.128 191.47" stroke="#0500FF" stroke-width="0.600927px" stroke-linecap="round" stroke-linejoin="round" data-v-e99fc08a="" fill="none"></path><path d="M196.475 185.346L193.434 178.975L189.504 182.191L192.544 188.556" stroke="#0500FF" stroke-width="0.600927px" stroke-linecap="round" stroke-linejoin="round" data-v-e99fc08a="" fill="none"></path><path d="M185.258 162.713L189.946 172.544L194.87 172.41L199.564 182.24" stroke="#0500FF" stroke-width="0.600927px" stroke-linecap="round" stroke-linejoin="round" data-v-e99fc08a="" fill="none"></path><path d="M185.53 133.839L194.833 132.737L215.245 175.492L205.942 176.6L185.53 133.839Z" fill="#FFAEFE" data-v-e99fc08a=""></path><path d="M198.044 160.047L203.476 150.84L194.833 132.737L185.53 133.839L198.044 160.047Z" fill="#1B1B1C" data-v-e99fc08a=""></path><path d="M205.942 176.601L215.245 175.492L192.011 196.043L182.708 197.151L205.942 176.601Z" fill="#0500FF" data-v-e99fc08a=""></path><path d="M205.718 180.102L210.708 179.509L195.93 192.579L190.933 193.173L205.718 180.102Z" fill="#1B1B1C" data-v-e99fc08a=""></path><path d="M210.708 179.507L215.245 175.492L194.834 132.737L185.53 133.845C184.949 140.211 184.561 146.159 184.543 146.474L190.206 158.339L171.903 174.528L182.708 197.157L192.011 196.048L202.932 186.388L210.714 179.507H210.708Z" stroke="#0500FF" stroke-width="0.600927px" stroke-linecap="round" stroke-linejoin="round" data-v-e99fc08a="" fill="none"></path><path d="M141.679 51.335C144.617 48.7366 148.699 50.1902 150.795 54.5814L184.065 124.277C182.962 131.308 182.005 146.008 181.951 146.784L187.614 158.649L162.672 180.707L116.81 84.6411C114.715 80.25 115.393 74.5929 118.331 71.9946L141.673 51.3471L141.679 51.335ZM149.529 62.6914L147.863 59.2027C146.694 56.7558 144.417 55.9502 142.782 57.3917L121.953 75.8103C120.311 77.2579 119.936 80.4135 121.105 82.8604L122.77 86.3491C123.939 88.796 126.21 89.6077 127.852 88.1601L148.681 69.7415C150.316 68.2939 150.698 65.1383 149.529 62.6914Z" stroke="#0500FF" stroke-width="0.600927px" stroke-linecap="round" stroke-linejoin="round" data-v-e99fc08a="" fill="none"></path><path d="M148.166 62.11L143.514 66.2226C143.442 66.3922 143.363 66.5618 143.26 66.7192C140.952 70.2927 131.904 68.2274 125.356 63.9937C121.431 61.4559 118.276 58.3125 116.471 55.1387C114.969 52.498 114.624 50.1782 115.52 48.7852C116.029 47.9978 116.865 47.483 117.931 47.2104C118.76 45.5751 119.493 43.8974 120.129 42.2075C116.283 42.262 113.158 43.5703 111.474 46.1747C109.536 49.1728 109.821 53.2005 112.28 57.5251C114.46 61.353 118.173 65.09 122.734 68.0396C128.136 71.5344 133.757 73.309 138.372 73.309C142.339 73.309 145.568 71.9947 147.288 69.3358C148.602 67.3068 148.832 64.7932 148.148 62.11H148.166Z" fill="#2D9FFF" stroke="#0500FF" stroke-width="0.600927px" stroke-linecap="round" stroke-linejoin="round" data-v-e99fc08a=""></path><path d="M131.177 46.0953C130.753 47.2279 130.299 48.3484 129.814 49.4629C129.808 49.481 129.802 49.4931 129.79 49.5113C131.044 50.1049 132.273 50.7772 133.424 51.5222C134.926 52.4973 136.38 53.636 137.7 54.8594L141.352 51.6312C139.796 50.1654 138.015 48.7603 136.04 47.4823C134.556 46.5253 133.06 45.7016 131.57 44.999C131.443 45.3685 131.31 45.7319 131.177 46.1014V46.0953Z" fill="#2D9FFF" stroke="#0500FF" stroke-width="0.600927px" stroke-linecap="round" stroke-linejoin="round" data-v-e99fc08a=""></path><path d="M95.7692 63.2568L102.395 65.728C107.762 67.7328 114.896 64.0987 120.79 55.9221L115.599 51.3311C109.464 60.9855 101.584 65.4251 95.7692 63.2568Z" fill="#F4F4F7" stroke="#0500FF" stroke-width="0.600927px" stroke-linecap="round" stroke-linejoin="round" data-v-e99fc08a=""></path><path d="M98.0161 62.2266C95.66 58.9257 94.6182 54.0561 94.7878 48.5747C94.4789 48.8473 94.1458 49.1016 93.7642 49.3379C92.5287 50.095 91.075 50.5371 89.5669 50.6825C89.2277 58.102 90.5663 64.7099 93.74 69.1495C100.802 79.0342 114.345 74.5279 124.527 59.2164L120.796 55.9155C113.079 66.6178 103.243 69.5372 98.0221 62.2266H98.0161Z" fill="#F4F4F7" stroke="#0500FF" stroke-width="0.600927px" stroke-linecap="round" stroke-linejoin="round" data-v-e99fc08a=""></path><path d="M82.8983 49.356C82.7469 56.3091 84.1036 62.4689 87.1078 66.6783C88.7068 68.9193 90.645 70.4214 92.8012 71.2269L99.4273 73.6981C97.2711 72.8925 95.3389 71.3905 93.7339 69.1495C90.5662 64.7099 89.2277 58.1019 89.5608 50.6824C87.2774 50.9065 84.8668 50.4522 82.8983 49.362V49.356Z" fill="#F4F4F7" stroke="#0500FF" stroke-width="0.600927px" stroke-linecap="round" stroke-linejoin="round" data-v-e99fc08a=""></path><path d="M96.7139 45.0923L95.757 54.8558C95.9266 53.1538 95.1998 51.3731 93.5523 49.9195C90.3059 47.0547 84.7216 46.558 81.0572 48.8051C79.2584 49.9135 78.259 51.4761 78.0955 53.1235L79.0524 43.36C79.216 41.7126 80.2093 40.1499 82.0142 39.0416C85.6785 36.7884 91.2629 37.2912 94.5093 40.156C96.1567 41.6096 96.8775 43.3964 96.7139 45.0923Z" fill="#1B1B1C" stroke="#0500FF" stroke-width="0.600927px" stroke-linecap="round" stroke-linejoin="round" data-v-e99fc08a=""></path><path d="M82.8198 84.4676L51.0702 56.4127C50.0588 55.5223 49.6166 54.426 49.7196 53.3843L48.7626 63.1478C48.6596 64.1895 49.1018 65.2858 50.1133 66.1762L81.8628 94.2311L82.8198 84.4676Z" fill="#1B1B1C" stroke="#0500FF" stroke-width="0.600927px" stroke-linecap="round" stroke-linejoin="round" data-v-e99fc08a=""></path><path d="M131.147 66.9043C131.05 67.9158 130.438 68.8727 129.33 69.5572L102.25 86.2072L101.293 95.9707L128.373 79.3207C129.475 78.6423 130.087 77.6793 130.19 76.6678L131.147 66.9043Z" fill="#1B1B1C" stroke="#0500FF" stroke-width="0.600927px" stroke-linecap="round" stroke-linejoin="round" data-v-e99fc08a=""></path><path d="M102.25 86.2075L101.293 95.971L81.8628 94.2388L82.8198 84.4692L102.25 86.2075Z" fill="#1B1B1C" stroke="#0500FF" stroke-width="0.600927px" stroke-linecap="round" stroke-linejoin="round" data-v-e99fc08a=""></path><path d="M129.796 63.8748L94.1641 32.3917L82.9955 31.3984L51.5366 50.7377C49.2896 52.1186 49.0836 54.6625 51.0703 56.4189L59.8707 64.1898L77.7927 80.0221L82.8259 84.4678L102.256 86.2L129.336 69.55C131.583 68.169 131.789 65.6252 129.802 63.8687L129.796 63.8748ZM93.7523 49.4112C90.094 51.6583 84.4975 51.1617 81.2572 48.2968C79.5855 46.819 78.8647 45.008 79.0646 43.2879C79.2463 41.6707 80.2396 40.1323 82.0143 39.0421C85.6786 36.789 91.2629 37.2917 94.5094 40.1565C96.181 41.6344 96.9018 43.4453 96.7019 45.1715C96.5202 46.7887 95.5269 48.3271 93.7523 49.4173V49.4112Z" fill="url(&quot;#paint2_linear_2525_139201&quot;)" stroke="#0500FF" stroke-width="0.600927px" stroke-linecap="round" stroke-linejoin="round" data-v-e99fc08a=""></path><path d="M52.0695 89.2449L51.5304 94.6717L48.4172 91.922L48.9563 86.4951L52.0695 89.2449Z" fill="#FFAEFE" data-v-e99fc08a=""></path><path d="M77.7865 80.02L37.7211 104.653L37.182 110.08L77.2475 85.4469L77.7865 80.02Z" fill="#1B1B1C" data-v-e99fc08a=""></path><path d="M48.9564 86.4951L48.4174 91.922L4.36047 119.002L4.89953 113.575L48.9564 86.4951Z" fill="#1B1B1C" data-v-e99fc08a=""></path><path d="M31.5491 104.102L31.0101 109.529L29.514 108.209L30.0591 102.782L31.5491 104.102Z" fill="#FFAEFE" data-v-e99fc08a=""></path><path d="M37.721 104.654L37.182 110.081L31.0101 109.529L31.5492 104.103L37.721 104.654Z" fill="#FFAEFE" data-v-e99fc08a=""></path><path d="M56.1942 93.2972L55.6552 98.718L68.1926 91.0138L68.7378 85.5869L56.1942 93.2972Z" fill="#0500FF" data-v-e99fc08a=""></path><path d="M44.3533 89.3236L43.8142 94.7505L48.4173 91.922L48.9564 86.4951L44.3533 89.3236Z" fill="#0500FF" data-v-e99fc08a=""></path><path d="M4.89944 113.576L4.36039 119.002L1.26538 116.265L1.80443 110.838L4.89944 113.576Z" fill="#FFAEFE" data-v-e99fc08a=""></path><path d="M77.7863 80.019L37.7208 104.652L31.549 104.101L30.059 102.78L52.0693 89.2435L48.9561 86.4937L4.89921 113.574L1.8042 110.836L2.74905 99.2977L67.4959 59.4927L74.7458 65.9007L71.4267 74.4044L77.7863 80.019Z" fill="url(&quot;#paint3_linear_2525_139201&quot;)" data-v-e99fc08a=""></path><path d="M40.0406 96.647L30.0591 102.782L31.549 104.103L37.7209 104.654L47.7267 98.5003L40.0406 96.647Z" fill="#F4F4F7" data-v-e99fc08a=""></path><path d="M34.5836 95.3264L16.3649 90.9292L2.74927 99.2997L2.17993 106.259L12.6763 108.797L34.5836 95.3264Z" fill="#F4F4F7" data-v-e99fc08a=""></path><path d="M16.6194 96.6281L50.1436 76.0169L50.8522 69.73" stroke="#0500FF" stroke-width="0.600927px" stroke-linecap="round" stroke-linejoin="round" data-v-e99fc08a="" fill="none"></path><path d="M18.1276 97.9595C17.1888 98.5349 15.7472 98.4077 14.9175 97.6749C14.4874 97.2933 14.3057 96.8269 14.3542 96.3848C14.4026 95.9669 14.657 95.5732 15.1113 95.2946C16.0501 94.7131 17.4916 94.8464 18.3214 95.5792C18.7514 95.9608 18.9331 96.4272 18.8846 96.8693C18.8362 97.2872 18.5818 97.6809 18.1276 97.9595Z" fill="#0500FF" data-v-e99fc08a=""></path><path d="M25.1532 93.6431C24.2144 94.2185 22.7729 94.0914 21.9431 93.3585C21.5131 92.9769 21.3314 92.5105 21.3798 92.0684C21.4283 91.6505 21.6827 91.2568 22.1369 90.9782C23.0757 90.3967 24.5172 90.53 25.347 91.2628C25.777 91.6444 25.9587 92.1108 25.9103 92.5529C25.8618 92.9708 25.6074 93.3645 25.1532 93.6431Z" fill="#0500FF" data-v-e99fc08a=""></path><path d="M32.1792 89.3238C31.2404 89.8992 29.7989 89.772 28.9691 89.0391C28.5391 88.6576 28.3574 88.1912 28.4058 87.7491C28.4543 87.3311 28.7087 86.9374 29.1629 86.6588C30.1017 86.0774 31.5432 86.2106 32.373 86.9435C32.803 87.3251 32.9847 87.7915 32.9363 88.2336C32.8878 88.6515 32.6334 89.0452 32.1792 89.3238Z" fill="#0500FF" data-v-e99fc08a=""></path><path d="M77.7865 80.019L71.4269 74.4044L74.746 65.9007L67.4961 59.4927L2.74929 99.2977L1.80443 110.836L1.26538 116.263L4.36039 119L30.0108 103.235L29.5141 108.207L31.0101 109.528L37.182 110.079L77.2475 85.4459L77.7865 80.019Z" stroke="#0500FF" stroke-width="0.600927px" stroke-linecap="round" stroke-linejoin="round" data-v-e99fc08a="" fill="none"></path><path d="M126.683 15.8675C125.453 14.1413 123.963 12.9845 122.304 12.3667L115.678 9.89551C117.337 10.5133 118.821 11.6701 120.057 13.3963C125.683 21.2762 123.824 38.0352 115.914 50.8392C115.811 51.0028 115.708 51.1663 115.605 51.3298L120.796 55.9208C121.389 55.0971 121.971 54.225 122.54 53.3104C130.456 40.5064 132.31 23.7473 126.683 15.8675Z" fill="url(&quot;#paint4_linear_2525_139201&quot;)" data-v-e99fc08a=""></path><path d="M99.1186 20.5249C107.144 7.53919 117.598 1.53088 125.278 4.39573L118.652 1.92457C110.978 -0.94028 100.524 5.06803 92.4925 18.0537C86.4418 27.8415 83.1227 39.4099 82.8986 49.3551C84.867 50.4453 87.2776 50.8996 89.561 50.6755C90.0031 40.9907 93.298 29.931 99.1125 20.5188L99.1186 20.5249Z" fill="url(&quot;#paint5_linear_2525_139201&quot;)" data-v-e99fc08a=""></path><path d="M92.4923 18.0542L95.5691 19.5563C93.4008 23.0631 91.5838 26.8002 90.1301 30.6038L93.4795 32.1119" stroke="#0500FF" stroke-width="0.600927px" stroke-linecap="round" stroke-linejoin="round" data-v-e99fc08a="" fill="none"></path><path d="M130.965 8.93887C123.66 -1.291 109.403 3.89964 99.1184 20.5255C93.2979 29.9377 90.003 40.9973 89.5669 50.6821C91.075 50.5367 92.5287 50.0946 93.7642 49.3375C94.1458 49.1013 94.4789 48.8469 94.7878 48.5743C95.018 40.9852 97.5679 32.2211 102.165 24.7894C110.081 11.9854 121.056 7.99401 126.683 15.8678C132.309 23.7477 130.45 40.5067 122.54 53.3107C121.971 54.2253 121.389 55.0914 120.796 55.9151L124.527 59.2161C124.884 58.6831 125.235 58.1319 125.58 57.5747C135.859 40.9489 138.275 19.1748 130.965 8.94492V8.93887Z" fill="#2D9FFF" stroke="#0500FF" stroke-width="0.600927px" stroke-linecap="round" stroke-linejoin="round" data-v-e99fc08a=""></path><path d="M130.965 8.9383C129.433 6.78815 127.591 5.32241 125.544 4.49869C125.217 4.36545 121.153 2.85125 118.658 1.92457C110.984 -0.94028 100.53 5.06803 92.4985 18.0537C86.4478 27.8415 83.1286 39.4099 82.9045 49.3551C84.873 50.4453 87.2836 50.8996 89.567 50.6755C91.0751 50.5301 92.5287 50.088 93.7643 49.3309C94.1459 49.0947 94.479 48.8403 94.7879 48.5677C95.0181 40.9786 97.568 32.2144 102.165 24.7828C107.168 16.691 113.4 12.1242 118.724 11.8455C119.197 12.2998 119.645 12.8086 120.057 13.3961C125.683 21.2759 123.824 38.035 115.914 50.839C115.811 51.0025 115.708 51.1661 115.605 51.3296L120.796 55.9206L124.527 59.2155C124.884 58.6825 125.235 58.1313 125.581 57.5741C135.859 40.9483 138.275 19.1742 130.965 8.94436V8.9383Z" stroke="#0500FF" stroke-width="0.600927px" stroke-linecap="round" stroke-linejoin="round" data-v-e99fc08a="" fill="none"></path><defs data-v-e99fc08a=""><linearGradient id="paint0_linear_2525_139201" x1="141.912" y1="157.58" x2="163.933" y2="67.9631" gradientUnits="userSpaceOnUse" data-v-e99fc08a=""><stop stop-color="#48FF91" data-v-e99fc08a=""></stop><stop offset="1" stop-color="#FFF465" data-v-e99fc08a=""></stop></linearGradient><linearGradient id="paint1_linear_2525_139201" x1="179.848" y1="166.614" x2="200.15" y2="161.393" gradientUnits="userSpaceOnUse" data-v-e99fc08a=""><stop stop-color="#FFAEFE" data-v-e99fc08a=""></stop><stop offset="1" stop-color="#FFF465" data-v-e99fc08a=""></stop></linearGradient><linearGradient id="paint2_linear_2525_139201" x1="116.56" y1="61.6165" x2="55.8234" y2="54.7393" gradientUnits="userSpaceOnUse" data-v-e99fc08a=""><stop stop-color="#0502FF" data-v-e99fc08a=""></stop><stop offset="0.18" stop-color="#1131FF" data-v-e99fc08a=""></stop><stop offset="0.36" stop-color="#1B59FF" data-v-e99fc08a=""></stop><stop offset="0.53" stop-color="#2377FF" data-v-e99fc08a=""></stop><stop offset="0.69" stop-color="#288DFF" data-v-e99fc08a=""></stop><stop offset="0.85" stop-color="#2B9AFF" data-v-e99fc08a=""></stop><stop offset="1" stop-color="#2D9FFF" data-v-e99fc08a=""></stop></linearGradient><linearGradient id="paint3_linear_2525_139201" x1="4.59429" y1="82.9667" x2="76.5251" y2="91.1113" gradientUnits="userSpaceOnUse" data-v-e99fc08a=""><stop stop-color="#FFAEFE" data-v-e99fc08a=""></stop><stop offset="1" stop-color="#FFF465" data-v-e99fc08a=""></stop></linearGradient><linearGradient id="paint4_linear_2525_139201" x1="117.14" y1="35.9822" x2="125.486" y2="18.6348" gradientUnits="userSpaceOnUse" data-v-e99fc08a=""><stop stop-color="#F4F4F7" data-v-e99fc08a=""></stop><stop offset="0.15" stop-color="#F0F2F7" data-v-e99fc08a=""></stop><stop offset="0.29" stop-color="#E4EDF7" data-v-e99fc08a=""></stop><stop offset="0.43" stop-color="#D0E4F8" data-v-e99fc08a=""></stop><stop offset="0.57" stop-color="#B5D9F9" data-v-e99fc08a=""></stop><stop offset="0.71" stop-color="#91C9FA" data-v-e99fc08a=""></stop><stop offset="0.85" stop-color="#65B7FC" data-v-e99fc08a=""></stop><stop offset="0.98" stop-color="#33A1FE" data-v-e99fc08a=""></stop><stop offset="1" stop-color="#2D9FFF" data-v-e99fc08a=""></stop></linearGradient><linearGradient id="paint5_linear_2525_139201" x1="98.6894" y1="30.0588" x2="90.6042" y2="45.1013" gradientUnits="userSpaceOnUse" data-v-e99fc08a=""><stop stop-color="#F4F4F7" data-v-e99fc08a=""></stop><stop offset="0.15" stop-color="#F0F2F7" data-v-e99fc08a=""></stop><stop offset="0.29" stop-color="#E4EDF7" data-v-e99fc08a=""></stop><stop offset="0.43" stop-color="#D0E4F8" data-v-e99fc08a=""></stop><stop offset="0.57" stop-color="#B5D9F9" data-v-e99fc08a=""></stop><stop offset="0.71" stop-color="#91C9FA" data-v-e99fc08a=""></stop><stop offset="0.85" stop-color="#65B7FC" data-v-e99fc08a=""></stop><stop offset="0.98" stop-color="#33A1FE" data-v-e99fc08a=""></stop><stop offset="1" stop-color="#2D9FFF" data-v-e99fc08a=""></stop></linearGradient><linearGradient id="paint0_linear_2525_139201" x1="141.912" y1="157.58" x2="163.933" y2="67.9631" gradientUnits="userSpaceOnUse" data-v-e99fc08a=""><stop stop-color="#48FF91" data-v-e99fc08a=""></stop><stop offset="1" stop-color="#FFF465" data-v-e99fc08a=""></stop></linearGradient><linearGradient id="paint1_linear_2525_139201" x1="179.848" y1="166.614" x2="200.15" y2="161.393" gradientUnits="userSpaceOnUse" data-v-e99fc08a=""><stop stop-color="#FFAEFE" data-v-e99fc08a=""></stop><stop offset="1" stop-color="#FFF465" data-v-e99fc08a=""></stop></linearGradient><linearGradient id="paint2_linear_2525_139201" x1="116.56" y1="61.6165" x2="55.8234" y2="54.7393" gradientUnits="userSpaceOnUse" data-v-e99fc08a=""><stop stop-color="#0502FF" data-v-e99fc08a=""></stop><stop offset="0.18" stop-color="#1131FF" data-v-e99fc08a=""></stop><stop offset="0.36" stop-color="#1B59FF" data-v-e99fc08a=""></stop><stop offset="0.53" stop-color="#2377FF" data-v-e99fc08a=""></stop><stop offset="0.69" stop-color="#288DFF" data-v-e99fc08a=""></stop><stop offset="0.85" stop-color="#2B9AFF" data-v-e99fc08a=""></stop><stop offset="1" stop-color="#2D9FFF" data-v-e99fc08a=""></stop></linearGradient><linearGradient id="paint3_linear_2525_139201" x1="4.59429" y1="82.9667" x2="76.5251" y2="91.1113" gradientUnits="userSpaceOnUse" data-v-e99fc08a=""><stop stop-color="#FFAEFE" data-v-e99fc08a=""></stop><stop offset="1" stop-color="#FFF465" data-v-e99fc08a=""></stop></linearGradient><linearGradient id="paint4_linear_2525_139201" x1="117.14" y1="35.9822" x2="125.486" y2="18.6348" gradientUnits="userSpaceOnUse" data-v-e99fc08a=""><stop stop-color="#F4F4F7" data-v-e99fc08a=""></stop><stop offset="0.15" stop-color="#F0F2F7" data-v-e99fc08a=""></stop><stop offset="0.29" stop-color="#E4EDF7" data-v-e99fc08a=""></stop><stop offset="0.43" stop-color="#D0E4F8" data-v-e99fc08a=""></stop><stop offset="0.57" stop-color="#B5D9F9" data-v-e99fc08a=""></stop><stop offset="0.71" stop-color="#91C9FA" data-v-e99fc08a=""></stop><stop offset="0.85" stop-color="#65B7FC" data-v-e99fc08a=""></stop><stop offset="0.98" stop-color="#33A1FE" data-v-e99fc08a=""></stop><stop offset="1" stop-color="#2D9FFF" data-v-e99fc08a=""></stop></linearGradient><linearGradient id="paint5_linear_2525_139201" x1="98.6894" y1="30.0588" x2="90.6042" y2="45.1013" gradientUnits="userSpaceOnUse" data-v-e99fc08a=""><stop stop-color="#F4F4F7" data-v-e99fc08a=""></stop><stop offset="0.15" stop-color="#F0F2F7" data-v-e99fc08a=""></stop><stop offset="0.29" stop-color="#E4EDF7" data-v-e99fc08a=""></stop><stop offset="0.43" stop-color="#D0E4F8" data-v-e99fc08a=""></stop><stop offset="0.57" stop-color="#B5D9F9" data-v-e99fc08a=""></stop><stop offset="0.71" stop-color="#91C9FA" data-v-e99fc08a=""></stop><stop offset="0.85" stop-color="#65B7FC" data-v-e99fc08a=""></stop><stop offset="0.98" stop-color="#33A1FE" data-v-e99fc08a=""></stop><stop offset="1" stop-color="#2D9FFF" data-v-e99fc08a=""></stop></linearGradient><linearGradient id="paint0_linear_2525_139201" x1="141.912" y1="157.58" x2="163.933" y2="67.9631" gradientUnits="userSpaceOnUse" data-v-e99fc08a=""><stop stop-color="#48FF91" data-v-e99fc08a=""></stop><stop offset="1" stop-color="#FFF465" data-v-e99fc08a=""></stop></linearGradient><linearGradient id="paint1_linear_2525_139201" x1="179.848" y1="166.614" x2="200.15" y2="161.393" gradientUnits="userSpaceOnUse" data-v-e99fc08a=""><stop stop-color="#FFAEFE" data-v-e99fc08a=""></stop><stop offset="1" stop-color="#FFF465" data-v-e99fc08a=""></stop></linearGradient><linearGradient id="paint2_linear_2525_139201" x1="116.56" y1="61.6165" x2="55.8234" y2="54.7393" gradientUnits="userSpaceOnUse" data-v-e99fc08a=""><stop stop-color="#0502FF" data-v-e99fc08a=""></stop><stop offset="0.18" stop-color="#1131FF" data-v-e99fc08a=""></stop><stop offset="0.36" stop-color="#1B59FF" data-v-e99fc08a=""></stop><stop offset="0.53" stop-color="#2377FF" data-v-e99fc08a=""></stop><stop offset="0.69" stop-color="#288DFF" data-v-e99fc08a=""></stop><stop offset="0.85" stop-color="#2B9AFF" data-v-e99fc08a=""></stop><stop offset="1" stop-color="#2D9FFF" data-v-e99fc08a=""></stop></linearGradient><linearGradient id="paint3_linear_2525_139201" x1="4.59429" y1="82.9667" x2="76.5251" y2="91.1113" gradientUnits="userSpaceOnUse" data-v-e99fc08a=""><stop stop-color="#FFAEFE" data-v-e99fc08a=""></stop><stop offset="1" stop-color="#FFF465" data-v-e99fc08a=""></stop></linearGradient><linearGradient id="paint4_linear_2525_139201" x1="117.14" y1="35.9822" x2="125.486" y2="18.6348" gradientUnits="userSpaceOnUse" data-v-e99fc08a=""><stop stop-color="#F4F4F7" data-v-e99fc08a=""></stop><stop offset="0.15" stop-color="#F0F2F7" data-v-e99fc08a=""></stop><stop offset="0.29" stop-color="#E4EDF7" data-v-e99fc08a=""></stop><stop offset="0.43" stop-color="#D0E4F8" data-v-e99fc08a=""></stop><stop offset="0.57" stop-color="#B5D9F9" data-v-e99fc08a=""></stop><stop offset="0.71" stop-color="#91C9FA" data-v-e99fc08a=""></stop><stop offset="0.85" stop-color="#65B7FC" data-v-e99fc08a=""></stop><stop offset="0.98" stop-color="#33A1FE" data-v-e99fc08a=""></stop><stop offset="1" stop-color="#2D9FFF" data-v-e99fc08a=""></stop></linearGradient><linearGradient id="paint5_linear_2525_139201" x1="98.6894" y1="30.0588" x2="90.6042" y2="45.1013" gradientUnits="userSpaceOnUse" data-v-e99fc08a=""><stop stop-color="#F4F4F7" data-v-e99fc08a=""></stop><stop offset="0.15" stop-color="#F0F2F7" data-v-e99fc08a=""></stop><stop offset="0.29" stop-color="#E4EDF7" data-v-e99fc08a=""></stop><stop offset="0.43" stop-color="#D0E4F8" data-v-e99fc08a=""></stop><stop offset="0.57" stop-color="#B5D9F9" data-v-e99fc08a=""></stop><stop offset="0.71" stop-color="#91C9FA" data-v-e99fc08a=""></stop><stop offset="0.85" stop-color="#65B7FC" data-v-e99fc08a=""></stop><stop offset="0.98" stop-color="#33A1FE" data-v-e99fc08a=""></stop><stop offset="1" stop-color="#2D9FFF" data-v-e99fc08a=""></stop></linearGradient></defs></svg>