<svg xmlns:xlink="http://www.w3.org/1999/xlink" xmlns="http://www.w3.org/2000/svg" width="73" height="95" viewBox="0 0 73 95" fill="none" class="h-[48px] w-[37px] tablet:h-[94px] tablet:w-[72px]"><path d="M60.2939 33.6958H68.2939C69.3548 33.6958 70.3722 34.1172 71.1224 34.8674C71.8725 35.6175 72.2939 36.6349 72.2939 37.6958V85.6958C72.2939 86.7567 71.8725 87.7741 71.1224 88.5242C70.3722 89.2744 69.3548 89.6958 68.2939 89.6958H4.29395C3.23308 89.6958 2.21566 89.2744 1.46552 88.5242C0.715373 87.7741 0.293945 86.7567 0.293945 85.6958V37.6958C0.293945 36.6349 0.715373 35.6175 1.46552 34.8674C2.21566 34.1172 3.23308 33.6958 4.29395 33.6958H12.2939V29.6958C12.2939 23.3306 14.8225 17.2261 19.3234 12.7252C23.8243 8.22436 29.9287 5.6958 36.2939 5.6958C42.6591 5.6958 48.7636 8.22436 53.2645 12.7252C57.7654 17.2261 60.2939 23.3306 60.2939 29.6958V33.6958ZM52.2939 33.6958V29.6958C52.2939 25.4523 50.6082 21.3827 47.6077 18.3821C44.6071 15.3815 40.5374 13.6958 36.2939 13.6958C32.0505 13.6958 27.9808 15.3815 24.9802 18.3821C21.9797 21.3827 20.2939 25.4523 20.2939 29.6958V33.6958H52.2939ZM32.2939 57.6958V65.6958H40.2939V57.6958H32.2939ZM16.2939 57.6958V65.6958H24.2939V57.6958H16.2939ZM48.2939 57.6958V65.6958H56.2939V57.6958H48.2939Z" fill="url(&quot;#paint0_linear_2745_66701&quot;)"></path><defs><linearGradient id="paint0_linear_2745_66701" x1="36.2939" y1="5.6958" x2="36.2939" y2="89.6958" gradientUnits="userSpaceOnUse"><stop offset="0.0457846" class="default-transition text-trustLightBlue [transition-property:stop-color,color] dark:text-trustYellow" style="stop-color: currentcolor;"></stop><stop offset="1" class="default-transition text-trustBlue [transition-property:stop-color,color] dark:text-trustGreen" style="stop-color: currentcolor;"></stop></linearGradient><linearGradient id="paint0_linear_2745_66701" x1="36.2939" y1="5.6958" x2="36.2939" y2="89.6958" gradientUnits="userSpaceOnUse"><stop offset="0.0457846" class="default-transition text-trustLightBlue [transition-property:stop-color,color] dark:text-trustYellow" style="stop-color: currentcolor;"></stop><stop offset="1" class="default-transition text-trustBlue [transition-property:stop-color,color] dark:text-trustGreen" style="stop-color: currentcolor;"></stop></linearGradient></defs></svg>