<svg xmlns:xlink="http://www.w3.org/1999/xlink" xmlns="http://www.w3.org/2000/svg" width="73" height="95" viewBox="0 0 73 95" fill="none" class="h-[48px] w-[37px] tablet:h-[94px] tablet:w-[72px]"><path d="M7.64897 57.2557V13.3588C7.64897 12.3886 8.03028 11.4581 8.709 10.7721C9.38773 10.0861 10.3083 9.70068 11.2681 9.70068H69.1748C70.1346 9.70068 71.0552 10.0861 71.7339 10.7721C72.4126 11.4581 72.7939 12.3886 72.7939 13.3588V71.8881C72.7939 74.7986 71.65 77.5899 69.6139 79.648C67.5777 81.7061 64.816 82.8623 61.9364 82.8623H11.2681C8.38855 82.8623 5.62691 81.7061 3.59073 79.648C1.55456 77.5899 0.410645 74.7986 0.410645 71.8881V64.5719H58.3173V71.8881C58.3173 72.8582 58.6986 73.7887 59.3773 74.4747C60.056 75.1607 60.9766 75.5461 61.9364 75.5461C62.8963 75.5461 63.8169 75.1607 64.4956 74.4747C65.1743 73.7887 65.5556 72.8582 65.5556 71.8881V57.2557H7.64897Z" fill="url(&quot;#paint0_linear_2745_66720&quot;)"></path><defs><linearGradient id="paint0_linear_2745_66720" x1="36.6023" y1="9.70068" x2="36.6023" y2="82.8623" gradientUnits="userSpaceOnUse"><stop offset="0.0457846" class="default-transition text-trustLightBlue [transition-property:stop-color,color] dark:text-trustYellow" style="stop-color: currentcolor;"></stop><stop offset="1" class="default-transition text-trustBlue [transition-property:stop-color,color] dark:text-trustGreen" style="stop-color: currentcolor;"></stop></linearGradient><linearGradient id="paint0_linear_2745_66720" x1="36.6023" y1="9.70068" x2="36.6023" y2="82.8623" gradientUnits="userSpaceOnUse"><stop offset="0.0457846" style="stop-color:currentColor" class="default-transition text-trustLightBlue [transition-property:stop-color,color] dark:text-trustYellow"></stop><stop offset="1" style="stop-color:currentColor" class="default-transition text-trustBlue [transition-property:stop-color,color] dark:text-trustGreen"></stop></linearGradient></defs></svg>