<svg xmlns:xlink="http://www.w3.org/1999/xlink" xmlns="http://www.w3.org/2000/svg" width="31" height="31" viewBox="0 0 31 31" class="default-transition text-trustBlack dark:text-trustWhite default-transition text-trustBlack dark:text-trustWhite"><rect x="0.50354" width="30.0779" height="30.0779" rx="4.71921" style="" fill="#1B1B1C"></rect><path style="" class="default-transition text-trustWhite dark:text-trustBlack" d="M25.2794 13.7986C25.2793 13.3146 25.1401 12.8409 24.8785 12.4337C24.6168 12.0265 24.2436 11.7031 23.8034 11.502C23.3632 11.3009 22.8745 11.2304 22.3954 11.2991C21.9163 11.3678 21.467 11.5727 21.101 11.8894C19.779 11.1869 18.1997 10.7623 16.5501 10.6636L16.9598 8.2035L18.3583 8.41818C18.4293 8.85935 18.6539 9.26124 18.9925 9.55281C19.3311 9.84438 19.7619 10.0069 20.2088 10.0115C20.6556 10.0162 21.0897 9.86274 21.4343 9.57831C21.7789 9.29388 22.0119 8.89677 22.0921 8.45717C22.1722 8.01758 22.0944 7.5638 21.8723 7.17603C21.6503 6.78827 21.2983 6.4915 20.8785 6.33816C20.4588 6.18483 19.9984 6.1848 19.5787 6.3381C19.159 6.49139 18.8069 6.78813 18.5848 7.17587L16.5328 6.86017C16.3686 6.83485 16.2011 6.87525 16.0665 6.97261C15.9319 7.06997 15.8411 7.21645 15.8137 7.38029L15.2715 10.6542C13.5478 10.7284 11.8919 11.1577 10.5154 11.8894C10.0127 11.4647 9.36414 11.253 8.70774 11.2993C8.05133 11.3457 7.43892 11.6463 7.00085 12.1374C6.56279 12.6284 6.33366 13.271 6.36225 13.9285C6.39083 14.5859 6.67487 15.2062 7.1539 15.6573C7.03114 16.0792 6.96869 16.5163 6.96843 16.9557C6.96843 18.6865 7.91555 20.2982 9.64483 21.4932C11.2999 22.6384 13.4886 23.2698 15.8082 23.2698C18.1279 23.2698 20.3165 22.6384 21.9716 21.4932C23.7009 20.2982 24.648 18.6865 24.648 16.9557C24.6477 16.5163 24.5853 16.0792 24.4625 15.6573C24.7193 15.4204 24.9243 15.133 25.0649 14.8132C25.2055 14.4934 25.2785 14.148 25.2794 13.7986ZM20.2281 7.48448C20.353 7.48448 20.4751 7.52151 20.5789 7.59089C20.6827 7.66027 20.7637 7.75888 20.8115 7.87426C20.8592 7.98963 20.8717 8.11659 20.8474 8.23907C20.823 8.36156 20.7629 8.47406 20.6746 8.56237C20.5863 8.65067 20.4738 8.71081 20.3513 8.73517C20.2288 8.75953 20.1018 8.74703 19.9865 8.69924C19.8711 8.65145 19.7725 8.57052 19.7031 8.46668C19.6337 8.36285 19.5967 8.24077 19.5967 8.11589C19.5967 7.94843 19.6632 7.78783 19.7816 7.66941C19.9 7.551 20.0606 7.48448 20.2281 7.48448ZM11.3883 15.6929C11.3883 15.4431 11.4624 15.1989 11.6011 14.9913C11.7399 14.7836 11.9371 14.6217 12.1679 14.5261C12.3986 14.4306 12.6525 14.4056 12.8975 14.4543C13.1425 14.503 13.3675 14.6233 13.5441 14.7999C13.7207 14.9765 13.841 15.2015 13.8897 15.4465C13.9384 15.6914 13.9134 15.9454 13.8178 16.1761C13.7223 16.4069 13.5604 16.6041 13.3527 16.7429C13.1451 16.8816 12.9009 16.9557 12.6511 16.9557C12.3162 16.9557 11.995 16.8226 11.7582 16.5858C11.5214 16.349 11.3883 16.0278 11.3883 15.6929ZM18.6298 20.0393C17.761 20.5011 16.7921 20.7425 15.8082 20.7425C14.8243 20.7425 13.8554 20.5011 12.9866 20.0393C12.9133 20.0005 12.8484 19.9476 12.7956 19.8836C12.7427 19.8196 12.703 19.7459 12.6787 19.6666C12.6544 19.5873 12.6459 19.504 12.6538 19.4214C12.6616 19.3389 12.6857 19.2586 12.7245 19.1854C12.7634 19.1121 12.8163 19.0472 12.8803 18.9943C12.9442 18.9415 13.018 18.9018 13.0973 18.8775C13.1766 18.8531 13.2599 18.8447 13.3425 18.8525C13.425 18.8604 13.5053 18.8844 13.5785 18.9233C14.2651 19.2883 15.0307 19.4792 15.8082 19.4792C16.5857 19.4792 17.3514 19.2883 18.0379 18.9233C18.1112 18.8844 18.1914 18.8604 18.274 18.8525C18.3565 18.8447 18.4399 18.8531 18.5192 18.8775C18.5985 18.9018 18.6722 18.9415 18.7361 18.9943C18.8001 19.0472 18.853 19.1121 18.8919 19.1854C18.9307 19.2586 18.9548 19.3389 18.9627 19.4214C18.9705 19.504 18.9621 19.5873 18.9377 19.6666C18.9134 19.7459 18.8737 19.8196 18.8209 19.8836C18.768 19.9476 18.7031 20.0005 18.6298 20.0393ZM18.9653 16.9557C18.7155 16.9557 18.4714 16.8816 18.2637 16.7429C18.056 16.6041 17.8942 16.4069 17.7986 16.1761C17.703 15.9454 17.678 15.6914 17.7267 15.4465C17.7754 15.2015 17.8957 14.9765 18.0723 14.7999C18.2489 14.6233 18.4739 14.503 18.7189 14.4543C18.9639 14.4056 19.2178 14.4306 19.4485 14.5261C19.6793 14.6217 19.8765 14.7836 20.0153 14.9913C20.154 15.1989 20.2281 15.4431 20.2281 15.6929C20.2281 16.0278 20.0951 16.349 19.8582 16.5858C19.6214 16.8226 19.3002 16.9557 18.9653 16.9557Z" fill="#FFFFFF"></path></svg>