<svg xmlns:xlink="http://www.w3.org/1999/xlink" xmlns="http://www.w3.org/2000/svg" width="31" height="31" viewBox="0 0 31 31" class="default-transition text-trustBlack dark:text-trustWhite default-transition text-trustBlack dark:text-trustWhite"><rect x="0.379395" width="30.0779" height="30.0779" rx="4.71921" style="" fill="#1B1B1C"></rect><path style="" class="default-transition text-trustWhite dark:text-trustBlack" d="M7.36307 13.7554L17.906 9.20518C18.9464 8.73119 22.4746 7.21444 22.4746 7.21444C22.4746 7.21444 24.103 6.55086 23.9673 8.16241C23.9221 8.82599 23.5602 11.1485 23.1984 13.6643L22.0675 21.1095C22.0675 21.1095 21.977 22.1996 21.2081 22.3892C20.4391 22.5788 19.1726 21.7257 18.9464 21.5361C18.7654 21.3939 15.5539 19.2609 14.3778 18.2182C14.0611 17.9338 13.6993 17.365 14.423 16.7014C16.0514 15.1373 17.9965 13.1939 19.1726 11.9616C19.7154 11.3928 20.2582 10.0656 17.9965 11.6772L11.615 16.1727C11.615 16.1727 10.8913 16.6467 9.53429 16.2201C8.17728 15.7936 6.59409 15.2248 6.59409 15.2248C6.59409 15.2248 5.50848 14.5138 7.36307 13.7554Z" fill="#FFFFFF"></path></svg>