<svg xmlns:xlink="http://www.w3.org/1999/xlink" xmlns="http://www.w3.org/2000/svg" width="73" height="95" viewBox="0 0 73 95" fill="none" class="h-[48px] w-[37px] tablet:h-[94px] tablet:w-[72px]"><path d="M39.513 16.4624L71.8393 73.057C72.1371 73.5784 72.2939 74.1698 72.2939 74.7719C72.2939 75.374 72.1372 75.9655 71.8393 76.4869C71.5415 77.0083 71.1131 77.4413 70.5973 77.7424C70.0814 78.0434 69.4962 78.2019 68.9005 78.2019H4.24789C3.65222 78.2019 3.06704 78.0434 2.55118 77.7424C2.03532 77.4413 1.60694 77.0083 1.30911 76.4869C1.01128 75.9655 0.854488 75.374 0.854492 74.7719C0.854496 74.1698 1.0113 73.5784 1.30913 73.057L33.6355 16.4624C33.9333 15.941 34.3617 15.5081 34.8776 15.207C35.3934 14.906 35.9786 14.7476 36.5742 14.7476C37.1699 14.7476 37.755 14.906 38.2709 15.207C38.7867 15.5081 39.2151 15.941 39.513 16.4624ZM33.1807 61.0521V67.912H39.9677V61.0521H33.1807ZM33.1807 37.0422V54.1921H39.9677V37.0422H33.1807Z" fill="url(&quot;#paint0_linear_2745_67148&quot;)"></path><defs><linearGradient id="paint0_linear_2745_67148" x1="36.5742" y1="14.7476" x2="36.5742" y2="78.2019" gradientUnits="userSpaceOnUse"><stop offset="0.0457846" class="default-transition text-trustLightBlue [transition-property:stop-color,color] dark:text-trustYellow" style="stop-color: currentcolor;"></stop><stop offset="1" class="default-transition text-trustBlue [transition-property:stop-color,color] dark:text-trustGreen" style="stop-color: currentcolor;"></stop></linearGradient><linearGradient id="paint0_linear_2745_67148" x1="36.5742" y1="14.7476" x2="36.5742" y2="78.2019" gradientUnits="userSpaceOnUse"><stop offset="0.0457846" class="default-transition text-trustLightBlue [transition-property:stop-color,color] dark:text-trustYellow" style="stop-color: currentcolor;"></stop><stop offset="1" class="default-transition text-trustBlue [transition-property:stop-color,color] dark:text-trustGreen" style="stop-color: currentcolor;"></stop></linearGradient></defs></svg>